<?xml version="1.0" encoding="utf-8"?>
<!-- Generator: Adobe Illustrator 24.3.0, SVG Export Plug-In . SVG Version: 6.00 Build 0)  -->
<svg version="1.1" id="Layer_1" xmlns="http://www.w3.org/2000/svg" xmlns:xlink="http://www.w3.org/1999/xlink" x="0px" y="0px"
	 viewBox="0 0 300 300" enable-background="new 0 0 300 300" xml:space="preserve">
<g>
	<g>
		<g>
			<path fill="#9AD7D2" d="M166.739,231.507c-17.982-17.983-17.983-47.144,0-65.127c14.857-14.855,37.324-17.404,54.833-7.716
				c17.66-43.112,24.244-85.373,24.244-85.373l-42.614-43.275h-65.982H72.268L29.655,73.291c0,0,24.023,160.907,107.564,175.071
				c11.966-2.029,22.727-7.078,32.391-14.223C168.626,233.308,167.666,232.434,166.739,231.507z"/>
		</g>
		<g>
			<path fill="#ABEDE6" d="M49.019,73.291l42.613-43.275H72.268L29.655,73.291c0,0,24.023,160.907,107.564,175.071
				c3.323-0.564,6.546-1.382,9.686-2.393C71.179,221.626,49.019,73.291,49.019,73.291z"/>
		</g>
		<g>
			<path fill="#9B9494" d="M163.28,53.411c-0.95-2.316-3.596-3.423-5.92-2.475c-7.922,3.249-11.808,13.913-13.537,20.778
				c-0.762-0.1-1.533-0.171-2.323-0.171c-0.828,0-1.636,0.077-2.434,0.189c-1.728-6.865-5.614-17.543-13.542-20.795
				c-2.32-0.948-4.968,0.159-5.919,2.475c-0.951,2.319,0.158,4.968,2.475,5.919c4.202,1.722,7.159,10.064,8.519,16.022
				c0.004-0.003,0.009-0.006,0.013-0.009c-4.055,3.217-6.664,8.176-6.664,13.75c0,3.636,1.106,7.012,3,9.816
				c4.574-1.545,9.457-2.419,14.552-2.419c5.097,0,9.98,0.875,14.554,2.419c1.893-2.8,3-6.18,3-9.816
				c0-5.616-2.65-10.604-6.756-13.818c1.359-5.946,4.302-14.22,8.507-15.945C163.122,58.379,164.231,55.73,163.28,53.411z"/>
		</g>
		<g>
			<path fill="#FFC67B" d="M270.345,255.073l-31.912-31.913c11.007-17.762,8.847-41.366-6.565-56.78
				c-17.985-17.983-47.144-17.983-65.129,0c-17.983,17.983-17.982,47.144,0,65.127c15.413,15.413,39.021,17.573,56.781,6.564
				l31.914,31.914L270.345,255.073z M178.603,219.644c-11.432-11.428-11.433-29.964,0-41.399
				c11.433-11.432,29.969-11.432,41.4-0.003c11.433,11.435,11.433,29.97,0.001,41.402
				C208.572,231.078,190.035,231.078,178.603,219.644z"/>
		</g>
		<g>
			<path fill="#FFD39F" d="M232.221,232.889c-2.957,1.834-6.192,3.686-8.701,5.181l31.956,31.914l6.837-6.835L232.221,232.889z"/>
		</g>
		<g>
			<path fill="#FFD39F" d="M180.454,231.507c-17.982-17.983-17.983-47.144,0-65.127c7.247-7.246,16.314-11.52,25.728-12.926
				c-13.948-2.085-28.663,2.189-39.4,12.926c-17.983,17.983-17.982,47.144,0,65.127c10.74,10.74,25.458,15.027,39.405,12.923
				C196.772,243.035,187.704,238.755,180.454,231.507z"/>
		</g>
		<g>
			<path fill="#FE6F80" d="M141.499,96.49c-25.136,0-45.512,20.379-45.512,45.514c0,25.134,20.376,45.51,45.512,45.51h0.002V96.49
				H141.499z"/>
		</g>
		<g>
			<path fill="#9B9494" d="M104.973,169.07l-11.402,9.503c-1.034,0.863-1.632,2.139-1.632,3.486v9.452
				c0,2.505,2.031,4.537,4.537,4.537s4.537-2.032,4.537-4.537v-7.329l10.071-8.392C108.829,173.761,106.785,171.513,104.973,169.07z
				"/>
		</g>
		<g>
			<path fill="#9B9494" d="M101.48,120.311H85.194c-1.548,0-2.989,0.789-3.822,2.094l-10.965,17.156
				c-1.35,2.112-0.733,4.915,1.379,6.265c0.756,0.485,1.603,0.715,2.438,0.715c1.496,0,2.961-0.739,3.827-2.094l9.627-15.062h10.12
				C98.714,126.209,99.932,123.161,101.48,120.311z"/>
		</g>
		<g>
			<path fill="#9B9494" d="M114.053,105.76l-13.04-10.864v-7.329c0-2.505-2.031-4.537-4.537-4.537s-4.537,2.032-4.537,4.537v9.452
				c0,1.347,0.598,2.623,1.632,3.485l13.778,11.482C109.368,109.691,111.613,107.609,114.053,105.76z"/>
		</g>
		<g>
			<path fill="#FE6F80" d="M166.739,166.379c5.319-5.317,11.625-9.021,18.319-11.195c1.261-4.174,1.955-8.596,1.955-13.18
				c0-25.135-20.376-45.514-45.512-45.514v91.024c4.816,0,9.452-0.759,13.809-2.148
				C157.447,178.422,161.243,171.877,166.739,166.379z"/>
		</g>
		<g>
			<path fill="#9B9494" d="M212.595,139.561l-10.965-17.156c-0.833-1.306-2.275-2.094-3.822-2.094H181.52
				c1.548,2.851,2.766,5.899,3.682,9.074h10.122l9.627,15.062c0.866,1.356,2.331,2.094,3.827,2.094c0.836,0,1.682-0.23,2.438-0.715
				C213.328,144.476,213.945,141.673,212.595,139.561z"/>
		</g>
		<g>
			<path fill="#9B9494" d="M186.525,83.03c-2.506,0-4.537,2.032-4.537,4.537v7.329l-13.04,10.864
				c2.438,1.852,4.683,3.932,6.702,6.227l13.78-11.482c1.034-0.862,1.632-2.138,1.632-3.485v-9.452
				C191.063,85.062,189.032,83.03,186.525,83.03z"/>
		</g>
		<g>
			<path fill="#9B9494" d="M114.656,139.189c0,1.97-1.599,3.571-3.571,3.571c-1.973,0-3.571-1.601-3.571-3.571
				c0-1.973,1.598-3.571,3.571-3.571C113.057,135.617,114.656,137.216,114.656,139.189z"/>
		</g>
		<g>
			<path fill="#9B9494" d="M125.318,117.838c0,1.365-1.106,2.472-2.471,2.472c-1.365,0-2.471-1.108-2.471-2.472
				s1.106-2.469,2.471-2.469C124.212,115.369,125.318,116.473,125.318,117.838z"/>
		</g>
		<g>
			<path fill="#9B9494" d="M125.318,166.601c0,1.365-1.106,2.472-2.471,2.472c-1.365,0-2.471-1.108-2.471-2.472
				c0-1.365,1.106-2.469,2.471-2.469C124.212,164.131,125.318,165.236,125.318,166.601z"/>
		</g>
		<g>
			<path fill="#9B9494" d="M131.787,150.121c0,0.989-0.802,1.793-1.79,1.793c-0.99,0-1.792-0.803-1.792-1.793
				c0-0.99,0.802-1.79,1.792-1.79C130.985,148.331,131.787,149.132,131.787,150.121z"/>
		</g>
		<g>
			<path fill="#9B9494" d="M131.787,133.423c0,0.989-0.802,1.793-1.79,1.793c-0.99,0-1.792-0.803-1.792-1.793
				c0-0.99,0.802-1.79,1.792-1.79C130.985,131.633,131.787,132.433,131.787,133.423z"/>
		</g>
		<g>
			<path fill="#9B9494" d="M167.078,139.189c0,1.97,1.6,3.571,3.571,3.571c1.973,0,3.571-1.601,3.571-3.571
				c0-1.973-1.598-3.571-3.571-3.571C168.678,135.617,167.078,137.216,167.078,139.189z"/>
		</g>
		<g>
			<path fill="#9B9494" d="M156.416,117.838c0,1.365,1.106,2.472,2.471,2.472c1.365,0,2.471-1.108,2.471-2.472
				s-1.106-2.469-2.471-2.469C157.523,115.369,156.416,116.473,156.416,117.838z"/>
		</g>
		<g>
			<path fill="#9B9494" d="M156.416,166.601c0,1.365,1.106,2.472,2.471,2.472c1.365,0,2.471-1.108,2.471-2.472
				c0-1.365-1.106-2.469-2.471-2.469C157.523,164.131,156.416,165.236,156.416,166.601z"/>
		</g>
		<g>
			<path fill="#9B9494" d="M149.948,150.121c0,0.989,0.802,1.793,1.79,1.793c0.989,0,1.791-0.803,1.791-1.793
				c0-0.99-0.802-1.79-1.791-1.79C150.749,148.331,149.948,149.132,149.948,150.121z"/>
		</g>
		<g>
			<path fill="#9B9494" d="M149.948,133.423c0,0.989,0.802,1.793,1.79,1.793c0.989,0,1.791-0.803,1.791-1.793
				c0-0.99-0.802-1.79-1.791-1.79C150.749,131.633,149.948,132.433,149.948,133.423z"/>
		</g>
	</g>
	<g>
		<g>
			<path fill="#161616" d="M137.219,252.899c-0.254,0-0.507-0.021-0.758-0.065c-53.451-9.06-83.36-73.64-99.038-126.222
				c-0.716-2.402,0.65-4.93,3.051-5.645c2.415-0.715,4.929,0.656,5.645,3.051c14.864,49.853,42.716,110.951,91.099,119.739
				c8.714-1.589,17.171-5.001,25.214-10.173c-18.618-19.803-18.254-51.061,1.097-70.412c14.632-14.637,36.875-18.734,55.644-10.72
				c13.744-35.015,20.225-68.793,21.781-77.631l-39.653-40.267H74.167L34.502,74.835c0.738,4.372,2.644,14.876,6.004,28.523
				c0.6,2.434-0.888,4.892-3.322,5.488c-2.43,0.614-4.89-0.883-5.49-3.32c-4.555-18.497-6.448-31.04-6.527-31.565
				c-0.211-1.412,0.254-2.839,1.254-3.855l42.613-43.274c0.854-0.865,2.018-1.353,3.233-1.353h130.934
				c1.215,0,2.379,0.487,3.233,1.353l42.614,43.274c1.007,1.025,1.471,2.464,1.249,3.881c-0.066,0.428-6.871,43.289-24.528,86.395
				c-0.492,1.199-1.471,2.13-2.692,2.561c-1.224,0.428-2.57,0.316-3.703-0.31c-16.105-8.909-36.424-6.047-49.429,6.954
				c-16.186,16.187-16.186,42.524,0,58.711c0.836,0.836,1.703,1.625,2.589,2.372c1.06,0.895,1.654,2.227,1.608,3.613
				c-0.044,1.388-0.721,2.679-1.837,3.503c-10.743,7.943-22.293,13.006-34.329,15.047
				C137.727,252.878,137.473,252.899,137.219,252.899z"/>
		</g>
		<g>
			<path fill="#161616" d="M156.052,103.447c-0.483,0-0.973-0.077-1.45-0.239c-8.568-2.895-17.632-2.895-26.202,0
				c-1.935,0.662-4.069-0.068-5.212-1.758c-2.471-3.66-3.777-7.931-3.777-12.356c0-12.179,9.909-22.089,22.089-22.089
				c12.18,0,22.091,9.91,22.091,22.089c0,4.428-1.307,8.702-3.778,12.356C158.951,102.726,157.529,103.447,156.052,103.447z
				 M141.499,91.953c4.115,0,8.221,0.52,12.253,1.548c0.504-1.403,0.764-2.889,0.764-4.407c0-7.175-5.838-13.015-13.016-13.015
				c-7.176,0-13.015,5.84-13.015,13.015c0,1.518,0.26,3.004,0.765,4.407C133.28,92.473,137.386,91.953,141.499,91.953z"/>
		</g>
		<g>
			<path fill="#161616" d="M139.065,71.731c-1.728-6.865-5.614-17.543-13.542-20.795c-2.32-0.948-4.968,0.159-5.919,2.475
				c-0.951,2.319,0.158,4.968,2.475,5.919c4.202,1.722,7.159,10.064,8.519,16.022C132.992,73.453,135.893,72.171,139.065,71.731z"/>
		</g>
		<g>
			<path fill="#161616" d="M163.28,53.411c-0.95-2.316-3.596-3.423-5.92-2.475c-7.922,3.249-11.808,13.913-13.537,20.778
				c3.171,0.42,6.072,1.684,8.475,3.562c1.359-5.946,4.302-14.22,8.507-15.945C163.122,58.379,164.231,55.73,163.28,53.411z"/>
		</g>
		<g>
			<path fill="#161616" d="M255.434,274.521c-1.161,0-2.322-0.443-3.208-1.329l-29.468-29.468c-4.267,2.23-8.857,3.834-13.69,4.788
				c-2.452,0.484-4.843-1.117-5.329-3.574c-0.484-2.458,1.115-4.844,3.574-5.329c4.971-0.981,9.621-2.794,13.817-5.397
				c1.788-1.105,4.107-0.839,5.598,0.65l28.706,28.706l8.495-8.495l-28.704-28.706c-1.49-1.489-1.757-3.808-0.648-5.598
				c10.197-16.453,7.763-37.5-5.917-51.182c-16.189-16.187-42.527-16.187-58.713,0s-16.186,42.524,0,58.711
				c4.982,4.98,11.183,8.628,17.933,10.548c2.41,0.682,3.809,3.193,3.124,5.604c-0.685,2.41-3.196,3.805-5.605,3.122
				c-8.234-2.339-15.796-6.785-21.868-12.858c-19.725-19.726-19.725-51.82,0-71.543c19.723-19.726,51.818-19.726,71.545,0
				c15.814,15.815,19.298,39.7,9.015,59.228l29.462,29.465c1.772,1.772,1.772,4.643,0,6.416l-14.911,14.911
				C257.755,274.078,256.595,274.521,255.434,274.521z M199.304,232.756c-9.033,0-17.524-3.518-23.91-9.904
				c-6.385-6.383-9.901-14.873-9.901-23.906c-0.001-9.03,3.517-17.523,9.903-23.909c13.183-13.18,34.633-13.183,47.816-0.003
				c13.183,13.183,13.185,34.634,0.001,47.817l0,0C216.826,229.238,208.335,232.756,199.304,232.756z M199.305,174.219
				c-6.335,0-12.671,2.413-17.494,7.234c-4.672,4.673-7.244,10.885-7.244,17.493c0,6.608,2.573,12.82,7.244,17.49
				c4.673,4.673,10.885,7.246,17.493,7.246c6.608,0,12.82-2.573,17.493-7.246l0,0c9.645-9.644,9.643-25.338-0.001-34.986
				C211.973,176.629,205.64,174.219,199.305,174.219z"/>
		</g>
		<g>
			<path fill="#161616" d="M141.501,192.052c-27.598,0-50.051-22.452-50.051-50.048c0-27.598,22.452-50.051,50.049-50.051
				c2.506,0,4.537,2.032,4.537,4.537l0.001,91.024c0,1.202-0.479,2.357-1.329,3.208
				C143.858,191.573,142.705,192.052,141.501,192.052z M136.964,101.276c-20.466,2.266-36.439,19.667-36.439,40.728
				c0,21.058,15.972,38.46,36.438,40.725L136.964,101.276z"/>
		</g>
		<g>
			<path fill="#161616" d="M104.973,169.07l-11.402,9.503c-1.034,0.863-1.632,2.139-1.632,3.486v9.452
				c0,2.505,2.031,4.537,4.537,4.537s4.537-2.032,4.537-4.537v-7.329l10.071-8.392C108.829,173.761,106.785,171.513,104.973,169.07z
				"/>
		</g>
		<g>
			<path fill="#161616" d="M101.48,120.311H85.194c-1.548,0-2.989,0.789-3.822,2.094l-10.965,17.156
				c-1.35,2.112-0.733,4.915,1.379,6.265c0.756,0.485,1.603,0.715,2.438,0.715c1.496,0,2.961-0.739,3.827-2.094l9.627-15.062h10.12
				C98.714,126.209,99.932,123.161,101.48,120.311z"/>
		</g>
		<g>
			<path fill="#161616" d="M114.053,105.76l-13.04-10.864v-7.329c0-2.505-2.031-4.537-4.537-4.537s-4.537,2.032-4.537,4.537v9.452
				c0,1.347,0.598,2.623,1.632,3.485l13.778,11.482C109.368,109.691,111.613,107.609,114.053,105.76z"/>
		</g>
		<g>
			<path fill="#161616" d="M141.501,192.052c-2.506,0-4.537-2.032-4.537-4.537V96.49c0-2.505,2.031-4.537,4.537-4.537
				c27.597,0,50.049,22.452,50.049,50.051c0,4.898-0.724,9.774-2.149,14.492c-0.43,1.424-1.529,2.546-2.942,3.004
				c-6.311,2.05-11.866,5.444-16.512,10.087c-4.825,4.827-8.292,10.587-10.3,17.115c-0.437,1.421-1.542,2.537-2.958,2.989
				C151.77,191.257,146.66,192.052,141.501,192.052z M155.31,185.367h0.029H155.31z M146.038,101.276v81.451
				c1.93-0.216,3.844-0.567,5.728-1.057c2.517-6.927,6.552-13.284,11.764-18.497c0.001,0,0.001,0,0.001,0
				c5.084-5.084,11.055-8.936,17.778-11.479c0.775-3.181,1.167-6.431,1.167-9.689C182.476,120.943,166.504,103.541,146.038,101.276z
				"/>
		</g>
		<g>
			<path fill="#161616" d="M212.595,139.561l-10.965-17.156c-0.833-1.306-2.275-2.094-3.822-2.094H181.52
				c1.548,2.851,2.766,5.899,3.682,9.074h10.122l9.627,15.062c0.866,1.356,2.331,2.094,3.827,2.094c0.836,0,1.682-0.23,2.438-0.715
				C213.328,144.476,213.945,141.673,212.595,139.561z"/>
		</g>
		<g>
			<path fill="#161616" d="M186.525,83.03c-2.506,0-4.537,2.032-4.537,4.537v7.329l-13.04,10.864
				c2.438,1.852,4.683,3.932,6.702,6.227l13.78-11.482c1.034-0.862,1.632-2.138,1.632-3.485v-9.452
				C191.063,85.062,189.032,83.03,186.525,83.03z"/>
		</g>
		<g>
			<path fill="#161616" d="M114.656,139.189c0,1.97-1.599,3.571-3.571,3.571c-1.973,0-3.571-1.601-3.571-3.571
				c0-1.973,1.598-3.571,3.571-3.571C113.057,135.617,114.656,137.216,114.656,139.189z"/>
		</g>
		<g>
			<path fill="#161616" d="M125.318,117.838c0,1.365-1.106,2.472-2.471,2.472c-1.365,0-2.471-1.108-2.471-2.472
				s1.106-2.469,2.471-2.469C124.212,115.369,125.318,116.473,125.318,117.838z"/>
		</g>
		<g>
			<path fill="#161616" d="M125.318,166.601c0,1.365-1.106,2.472-2.471,2.472c-1.365,0-2.471-1.108-2.471-2.472
				c0-1.365,1.106-2.469,2.471-2.469C124.212,164.131,125.318,165.236,125.318,166.601z"/>
		</g>
		<g>
			<path fill="#161616" d="M131.787,150.121c0,0.989-0.802,1.793-1.79,1.793c-0.99,0-1.792-0.803-1.792-1.793
				c0-0.99,0.802-1.79,1.792-1.79C130.985,148.331,131.787,149.132,131.787,150.121z"/>
		</g>
		<g>
			<path fill="#161616" d="M131.787,133.423c0,0.989-0.802,1.793-1.79,1.793c-0.99,0-1.792-0.803-1.792-1.793
				c0-0.99,0.802-1.79,1.792-1.79C130.985,131.633,131.787,132.433,131.787,133.423z"/>
		</g>
		<g>
			<path fill="#161616" d="M167.078,139.189c0,1.97,1.6,3.571,3.571,3.571c1.973,0,3.571-1.601,3.571-3.571
				c0-1.973-1.598-3.571-3.571-3.571C168.678,135.617,167.078,137.216,167.078,139.189z"/>
		</g>
		<g>
			<path fill="#161616" d="M156.416,117.838c0,1.365,1.106,2.472,2.471,2.472c1.365,0,2.471-1.108,2.471-2.472
				s-1.106-2.469-2.471-2.469C157.523,115.369,156.416,116.473,156.416,117.838z"/>
		</g>
		<g>
			<path fill="#161616" d="M156.416,166.601c0,1.365,1.106,2.472,2.471,2.472c1.365,0,2.471-1.108,2.471-2.472
				c0-1.365-1.106-2.469-2.471-2.469C157.523,164.131,156.416,165.236,156.416,166.601z"/>
		</g>
		<g>
			<path fill="#161616" d="M149.948,150.121c0,0.989,0.802,1.793,1.79,1.793c0.989,0,1.791-0.803,1.791-1.793
				c0-0.99-0.802-1.79-1.791-1.79C150.749,148.331,149.948,149.132,149.948,150.121z"/>
		</g>
		<g>
			<path fill="#161616" d="M149.948,133.423c0,0.989,0.802,1.793,1.79,1.793c0.989,0,1.791-0.803,1.791-1.793
				c0-0.99-0.802-1.79-1.791-1.79C150.749,131.633,149.948,132.433,149.948,133.423z"/>
		</g>
	</g>
</g>
</svg>
