<?xml version="1.0" encoding="utf-8"?>
<!-- Generator: Adobe Illustrator 24.3.0, SVG Export Plug-In . SVG Version: 6.00 Build 0)  -->
<svg version="1.1" id="Layer_1" xmlns="http://www.w3.org/2000/svg" xmlns:xlink="http://www.w3.org/1999/xlink" x="0px" y="0px"
	 viewBox="0 0 300 300" enable-background="new 0 0 300 300" xml:space="preserve">
<g>
	<g>
		<g>
			<path fill="#7FD3B9" d="M268.904,77.503l-46.881-47.608h-72.59H77.977l-46.88,47.608c0,0,26.428,177.021,118.336,192.603l0,0
				C241.347,254.523,268.904,77.503,268.904,77.503z"/>
		</g>
		<g>
			<path fill="#BBEAD9" d="M49.625,77.503l46.878-47.608H77.975L31.097,77.503c0,0,26.426,177.021,118.333,192.603
				c4.301-0.73,8.46-1.811,12.48-3.214C76.959,246.001,49.625,77.503,49.625,77.503z"/>
		</g>
		<g>
			<path fill="#F4F4F4" d="M150,62.311c-40.34,0-73.041,32.702-73.041,73.04c0,40.339,32.701,73.041,73.041,73.041
				c40.34,0,73.041-32.702,73.041-73.041H150V62.311z"/>
		</g>
		<g>
			<path fill="#F9F9F9" d="M87.546,135.352c0-36.74,27.131-67.136,62.451-72.267v-0.774c-40.338,0-73.037,32.702-73.037,73.04
				c0,40.339,32.699,73.041,73.037,73.041c1.781,0,3.545-0.086,5.293-0.213C117.428,205.465,87.546,173.909,87.546,135.352z"/>
		</g>
		<g>
			<path fill="#FE6F80" d="M150,62.311v73.04h73.041C223.041,95.013,190.34,62.311,150,62.311z"/>
		</g>
		<g>
			<path fill="#F4F4F4" d="M244.934,136.374c0.053-0.233,0.08-0.476,0.094-0.721c0.006-0.086,0.027-0.172,0.027-0.257
				c0-0.015,0.006-0.03,0.006-0.045c0-0.983-0.322-1.887-0.854-2.629l-5.981-10.489c-1.241-2.177-4.011-2.93-6.191-1.692
				c-2.174,1.24-2.933,4.011-1.69,6.188l2.328,4.085h-78.135V51.91l3.998,2.31c2.173,1.261,4.945,0.511,6.197-1.66
				c1.254-2.171,0.51-4.945-1.66-6.197l-10.804-6.239c-0.052-0.029-0.109-0.038-0.162-0.068c-0.242-0.127-0.495-0.23-0.761-0.316
				c-0.093-0.027-0.183-0.062-0.278-0.086c-0.317-0.077-0.647-0.124-0.986-0.13c-0.027,0-0.053-0.009-0.08-0.009H150
				c-0.362,0-0.71,0.053-1.047,0.133c-0.097,0.024-0.191,0.059-0.286,0.089c-0.263,0.083-0.514,0.183-0.753,0.31
				c-0.052,0.027-0.11,0.036-0.161,0.065l-10.937,6.239c-2.177,1.241-2.935,4.011-1.692,6.188c0.836,1.468,2.367,2.289,3.945,2.289
				c0.762,0,1.535-0.192,2.243-0.597l4.152-2.369v83.488c0,2.505,2.031,4.537,4.537,4.537h82.701l-2.345,4.065
				c-1.255,2.171-0.511,4.945,1.66,6.197c0.715,0.414,1.495,0.609,2.262,0.609c1.569,0,3.093-0.812,3.935-2.269l6.239-10.805
				c0.077-0.139,0.115-0.292,0.177-0.434c0.047-0.1,0.086-0.198,0.124-0.299C244.824,136.761,244.889,136.572,244.934,136.374z"/>
		</g>
		<g>
			<g>
				<path fill="#F9F9F9" d="M234.884,136.105H150c-2.506,0-4.537-2.032-4.537-4.537v3.784c0,2.505,2.031,4.537,4.537,4.537h82.701
					L234.884,136.105z"/>
			</g>
			<g>
				<path fill="#F9F9F9" d="M244.452,133.901l-6.239,10.805c-0.842,1.456-2.366,2.268-3.935,2.268c-0.768,0-1.548-0.195-2.262-0.609
					c-0.839-0.484-1.46-1.199-1.84-2.017c-0.96,2.103-0.204,4.623,1.84,5.801c0.715,0.414,1.495,0.609,2.262,0.609
					c1.569,0,3.093-0.812,3.935-2.269l6.239-10.805c0.077-0.139,0.115-0.292,0.177-0.434c0.047-0.1,0.086-0.198,0.124-0.299
					c0.071-0.192,0.136-0.381,0.18-0.579c0.053-0.233,0.08-0.476,0.094-0.721c0.006-0.086,0.027-0.172,0.027-0.257
					c0-0.015,0.006-0.03,0.006-0.045c0-0.668-0.189-1.273-0.449-1.84C244.558,133.641,244.52,133.777,244.452,133.901z"/>
			</g>
		</g>
		<g>
			<path fill="#F9F9F9" d="M149.619,135.352V49.494l-4.15,2.369c-0.003,0.003-0.006,2.372-0.009,2.372v81.116
				c0,2.505,2.032,4.537,4.537,4.537h4.159C151.651,139.889,149.619,137.857,149.619,135.352z"/>
		</g>
		<g>
			<path fill="#F9F9F9" d="M139.281,52.539c-1.241-2.177-0.485-4.948,1.692-6.188l10.938-6.239c0.051-0.029,0.107-0.038,0.16-0.065
				c0.003,0,0.006-0.003,0.006-0.003c-0.233-0.121-0.476-0.222-0.733-0.304c-0.094-0.027-0.183-0.062-0.277-0.086
				c-0.319-0.077-0.647-0.124-0.987-0.13c-0.027,0-0.053-0.009-0.08-0.009h-0.003c-0.36,0-0.709,0.053-1.046,0.133
				c-0.097,0.024-0.189,0.059-0.287,0.089c-0.263,0.083-0.514,0.183-0.753,0.31c-0.053,0.027-0.109,0.036-0.16,0.065l-10.938,6.239
				c-2.177,1.241-2.933,4.011-1.692,6.188c0.836,1.468,2.369,2.289,3.946,2.289c0.703,0,1.409-0.183,2.071-0.529
				C140.388,53.913,139.729,53.328,139.281,52.539z"/>
		</g>
	</g>
	<g>
		<g>
			<path fill="#161616" d="M149.433,274.642c-0.254,0-0.508-0.021-0.758-0.065C54.606,258.629,27.709,85.534,26.61,78.173
				c-0.211-1.412,0.254-2.839,1.254-3.855l46.88-47.608c0.854-0.866,2.018-1.353,3.233-1.353h144.046
				c1.215,0,2.379,0.487,3.233,1.353l46.88,47.608c1.007,1.025,1.471,2.464,1.249,3.881c-0.703,4.522-17.844,111.338-70.118,166.124
				c-1.734,1.82-4.605,1.879-6.416,0.151c-1.812-1.728-1.88-4.602-0.151-6.413c46.264-48.485,64.57-143.293,67.341-159.028
				l-43.918-44.601H79.876l-43.93,44.613C39.384,99.261,67.839,250.769,149.433,265.5c11.008-1.991,21.656-6.62,31.666-13.771
				c2.041-1.456,4.871-0.986,6.33,1.055c1.456,2.038,0.984,4.874-1.054,6.33c-11.367,8.117-23.54,13.322-36.184,15.464
				C149.94,274.622,149.687,274.642,149.433,274.642z"/>
		</g>
		<g>
			<path fill="#161616" d="M150,212.93c-38.167,0-71.155-28.434-76.732-66.138c-0.366-2.478,1.345-4.785,3.824-5.152
				c2.475-0.396,4.785,1.341,5.153,3.822c4.924,33.29,34.052,58.392,67.755,58.392c36.249,0,66.012-28.298,68.354-63.966H150
				c-2.506,0-4.537-2.032-4.537-4.537V66.999c-31.748,2.133-58.517,26.455-63.218,58.242c-0.368,2.478-2.675,4.209-5.153,3.822
				c-2.478-0.366-4.19-2.673-3.824-5.152C78.845,86.208,111.833,57.774,150,57.774c2.506,0,4.537,2.032,4.537,4.537v68.504h68.504
				c2.506,0,4.537,2.032,4.537,4.537C227.578,178.127,192.777,212.93,150,212.93z"/>
		</g>
		<g>
			<path fill="#161616" d="M223.041,139.889H150c-2.506,0-4.537-2.032-4.537-4.537V62.311c0-2.505,2.031-4.537,4.537-4.537
				c42.777,0,77.578,34.803,77.578,77.578C227.578,137.857,225.547,139.889,223.041,139.889z M154.537,130.815h63.817
				c-2.243-34.168-29.65-61.574-63.817-63.819V130.815z"/>
		</g>
		<g>
			<path fill="#161616" d="M244.934,136.374c0.053-0.233,0.078-0.476,0.094-0.721c0.006-0.086,0.027-0.172,0.027-0.257
				c0-0.015,0.005-0.03,0.005-0.045c0-0.983-0.321-1.887-0.852-2.629l-5.983-10.489c-1.241-2.177-4.011-2.93-6.188-1.692
				c-2.177,1.24-2.935,4.011-1.693,6.188l2.331,4.085h-78.136V51.91l3.998,2.31c2.173,1.261,4.945,0.511,6.197-1.66
				c1.254-2.171,0.51-4.945-1.66-6.197l-10.804-6.239c-0.052-0.029-0.109-0.038-0.162-0.068c-0.242-0.127-0.495-0.23-0.761-0.316
				c-0.093-0.027-0.183-0.062-0.278-0.086c-0.317-0.077-0.647-0.124-0.986-0.13c-0.027,0-0.053-0.009-0.08-0.009H150
				c-0.362,0-0.71,0.053-1.047,0.133c-0.097,0.024-0.191,0.059-0.286,0.089c-0.263,0.083-0.514,0.183-0.753,0.31
				c-0.052,0.027-0.11,0.036-0.161,0.065l-10.937,6.239c-2.177,1.241-2.935,4.011-1.692,6.188c0.836,1.468,2.367,2.289,3.945,2.289
				c0.762,0,1.535-0.192,2.243-0.597l4.152-2.369v83.488c0,2.505,2.031,4.537,4.537,4.537h82.701l-2.347,4.065
				c-1.254,2.171-0.509,4.945,1.66,6.197c0.715,0.414,1.495,0.609,2.264,0.609c1.569,0,3.093-0.812,3.933-2.269l6.239-10.805
				c0.08-0.139,0.117-0.292,0.18-0.434c0.046-0.1,0.084-0.198,0.122-0.299C244.823,136.761,244.891,136.572,244.934,136.374z"/>
		</g>
	</g>
</g>
</svg>
