<?xml version="1.0" encoding="utf-8"?>
<!-- Generator: Adobe Illustrator 21.0.0, SVG Export Plug-In . SVG Version: 6.00 Build 0)  -->
<svg version="1.1" id="Layer_1" xmlns="http://www.w3.org/2000/svg" xmlns:xlink="http://www.w3.org/1999/xlink" x="0px" y="0px"
	 viewBox="0 0 64 64" style="enable-background:new 0 0 64 64;" xml:space="preserve">
<style type="text/css">
	.st0{fill:#455A64;stroke:#37474F;stroke-linecap:round;stroke-linejoin:round;stroke-miterlimit:10;}
	.st1{fill:#78909C;stroke:#37474F;stroke-linecap:round;stroke-linejoin:round;stroke-miterlimit:10;}
	.st2{fill:#ECEFF1;stroke:#37474F;stroke-linecap:round;stroke-linejoin:round;stroke-miterlimit:10;}
	.st3{fill:none;stroke:#FFFFFF;stroke-linecap:round;stroke-linejoin:round;stroke-miterlimit:10;}
	.st4{fill:#FFCA28;stroke:#37474F;stroke-linecap:round;stroke-linejoin:round;stroke-miterlimit:10;}
	.st5{fill:none;stroke:#37474F;stroke-linecap:round;stroke-linejoin:round;stroke-miterlimit:10;}
	.st6{fill:#B0BEC5;}
	.st7{fill:#37474F;}
	.st8{fill:#455A64;}
	.st9{fill:#9CCC65;stroke:#37474F;stroke-linecap:round;stroke-linejoin:round;stroke-miterlimit:10;}
	.st10{fill:none;stroke:#C5E1A5;stroke-linecap:round;stroke-linejoin:round;stroke-miterlimit:10;}
	.st11{fill:#26C6DA;stroke:#37474F;stroke-linecap:round;stroke-linejoin:round;stroke-miterlimit:10;}
	.st12{fill:#EF5350;stroke:#37474F;stroke-linecap:round;stroke-linejoin:round;stroke-miterlimit:10;}
	.st13{fill:#B0BEC5;stroke:#37474F;stroke-linecap:round;stroke-linejoin:round;stroke-miterlimit:10;}
	.st14{fill:none;stroke:#EF9A9A;stroke-linecap:round;stroke-linejoin:round;stroke-miterlimit:10;}
	.st15{fill:none;stroke:#FFE082;stroke-linecap:round;stroke-linejoin:round;stroke-miterlimit:10;}
	.st16{fill:#D32F2F;stroke:#37474F;stroke-linecap:round;stroke-linejoin:round;stroke-miterlimit:10;}
	.st17{fill:#0097A7;stroke:#37474F;stroke-linecap:round;stroke-linejoin:round;stroke-miterlimit:10;}
	.st18{fill:#689F38;stroke:#37474F;stroke-linecap:round;stroke-linejoin:round;stroke-miterlimit:10;}
	.st19{fill:#FFA000;stroke:#37474F;stroke-linecap:round;stroke-linejoin:round;stroke-miterlimit:10;}
	.st20{fill:#FFA000;}
	.st21{fill:#FF6F00;}
	.st22{fill:#D32F2F;}
	.st23{fill:#0097A7;}
	.st24{fill:none;stroke:#80DEEA;stroke-linecap:round;stroke-linejoin:round;stroke-miterlimit:10;}
	.st25{fill:#689F38;}
	.st26{fill:none;stroke:#B0BEC5;stroke-linecap:round;stroke-linejoin:round;stroke-miterlimit:10;}
	.st27{fill:#78909C;stroke:#37474F;stroke-miterlimit:10;}
	.st28{fill:#78909C;}
	.st29{fill:#B71C1C;}
	.st30{fill:#F57F17;}
	.st31{fill:#006064;}
	.st32{fill:#26A69A;stroke:#37474F;stroke-linecap:round;stroke-linejoin:round;stroke-miterlimit:10;}
</style>
<g>
	<path class="st19" d="M23.5,18.7h-18c-2.8,0-5,2.2-5,5v26c0,2.8,2.2,5,5,5h3c0.6,0,1,0.4,1,1v4.2c0,0.9,1,1.3,1.7,0.7l5.6-5.2
		c0.5-0.4,1.1-0.7,1.7-0.7h5c2.8,0,5-2.2,5-5v-26C28.5,20.9,26.3,18.7,23.5,18.7z"/>
	<path class="st4" d="M23.5,14.7h-18c-2.8,0-5,2.2-5,5v26c0,2.8,2.2,5,5,5h3c0.6,0,1,0.4,1,1v4.2c0,0.9,1,1.3,1.7,0.7l5.6-5.2
		c0.5-0.4,1.1-0.7,1.7-0.7h5c2.8,0,5-2.2,5-5v-26C28.5,16.9,26.3,14.7,23.5,14.7z"/>
	<line class="st5" x1="5.5" y1="32.2" x2="23.5" y2="32.2"/>
	<line class="st5" x1="5.5" y1="37.2" x2="23.5" y2="37.2"/>
	<line class="st5" x1="5.5" y1="42.2" x2="14" y2="42.2"/>
	<path class="st19" d="M58.5,18.7h-18c-2.8,0-5,2.2-5,5v26c0,2.8,2.2,5,5,5h3c0.6,0,1,0.4,1,1v4.2c0,0.9,1,1.3,1.7,0.7l5.6-5.2
		c0.5-0.4,1.1-0.7,1.7-0.7h5c2.8,0,5-2.2,5-5v-26C63.5,20.9,61.3,18.7,58.5,18.7z"/>
	<path class="st4" d="M58.5,14.7h-18c-2.8,0-5,2.2-5,5v26c0,2.8,2.2,5,5,5h3c0.6,0,1,0.4,1,1v4.2c0,0.9,1,1.3,1.7,0.7l5.6-5.2
		c0.5-0.4,1.1-0.7,1.7-0.7h5c2.8,0,5-2.2,5-5v-26C63.5,16.9,61.3,14.7,58.5,14.7z"/>
	<line class="st5" x1="40.5" y1="32.2" x2="58.5" y2="32.2"/>
	<line class="st5" x1="40.5" y1="37.2" x2="58.5" y2="37.2"/>
	<line class="st5" x1="40.5" y1="42.2" x2="49" y2="42.2"/>
	<circle class="st9" cx="14.5" cy="14.7" r="11.5"/>
	<path class="st2" d="M19.7,13.1H16V9.4c0-0.8-0.7-1.5-1.5-1.5c-0.8,0-1.5,0.7-1.5,1.5v3.7H9.3c-0.8,0-1.5,0.7-1.5,1.5
		s0.7,1.5,1.5,1.5H13v3.7c0,0.8,0.7,1.5,1.5,1.5c0.8,0,1.5-0.7,1.5-1.5v-3.7h3.7c0.8,0,1.5-0.7,1.5-1.5S20.6,13.1,19.7,13.1z"/>
	<circle class="st12" cx="49.5" cy="14.7" r="11.5"/>
	<path class="st10" d="M5,14.7c0-5.2,4.3-9.5,9.5-9.5"/>
	<path class="st14" d="M40,14.7c0-5.2,4.3-9.5,9.5-9.5"/>
	<path class="st2" d="M54.7,13.1H44.3c-0.8,0-1.5,0.7-1.5,1.5s0.7,1.5,1.5,1.5h10.5c0.8,0,1.5-0.7,1.5-1.5S55.6,13.1,54.7,13.1z"/>
</g>
</svg>
