<?xml version="1.0" encoding="iso-8859-1"?>
<!-- Generator: Adobe Illustrator 19.0.0, SVG Export Plug-In . SVG Version: 6.00 Build 0)  -->
<svg xmlns="http://www.w3.org/2000/svg" xmlns:xlink="http://www.w3.org/1999/xlink" version="1.1" id="Layer_1" x="0px" y="0px" viewBox="0 0 511.999 511.999" style="enable-background:new 0 0 511.999 511.999;" xml:space="preserve">
<path style="fill:#FFA591;" d="M345.822,430.807v-60.705l44.408-44.408c9.006-9.006,9.006-23.742,0-32.747l0,0  c-9.006-9.006-23.742-9.006-32.747,0l-24.751,24.751v-60.698H155.807v173.809h190.015V430.807z"/>
<polygon style="fill:#6EAC34;" points="87.719,7.517 471.1,7.517 471.1,256.998 439.116,256.998 40.899,256.998 40.899,7.517   53.777,7.517 "/>
<g>
	<path style="fill:#C6E0A9;" d="M255.999,47.624c46.742,0,84.634,37.892,84.634,84.634s-37.892,84.634-84.634,84.634   S171.365,179,171.365,132.258c0-34.55,20.702-64.263,50.378-77.414C221.744,54.843,234.923,47.624,255.999,47.624z"/>
	<path style="fill:#C6E0A9;" d="M108.743,7.672c0,37.469-30.375,67.845-67.845,67.845v-68L108.743,7.672z"/>
	<path style="fill:#C6E0A9;" d="M108.743,256.998c0-37.469-30.375-67.845-67.845-67.845v67.845H108.743z"/>
	<path style="fill:#C6E0A9;" d="M403.256,7.672c0,37.469,30.375,67.845,67.845,67.845v-68L403.256,7.672z"/>
	<path style="fill:#C6E0A9;" d="M403.256,256.998c0-37.469,30.375-67.845,67.845-67.845v67.845H403.256z"/>
</g>
<path style="fill:#4AA9E7;" d="M235.564,430.807h122.633c5.32,0,9.633,4.313,9.633,9.633v54.408c0,5.32-4.313,9.633-9.633,9.633  H148.545c-5.32,0-9.633-4.313-9.633-9.633V440.44c0-5.32,4.313-9.633,9.633-9.633h49.594H235.564z"/>
<path style="fill:#FF8E76;" d="M345.822,370.102l44.408-44.408c9.006-9.006,9.006-23.742,0-32.747l0,0  c-9.006-9.006-23.742-9.006-32.747,0l-5.879,5.879l-41.993,42.847c0,0-49.311-8.517-64.025,35.343v53.792h100.235L345.822,370.102  L345.822,370.102z"/>
<rect x="155.809" y="257.002" style="opacity:0.15;fill:#892813;enable-background:new    ;" width="176.928" height="25.807"/>
<g style="opacity:0.46;">
	<path style="fill:#548229;" d="M406.681,7.517c-44.237,119.737-159.509,202.145-246.286,249.482h280.741h31.985V7.517H406.681z"/>
</g>
<path style="opacity:0.45;fill:#2F3368;enable-background:new    ;" d="M235.564,467.645h122.633c5.32,0,9.633,2.157,9.633,4.817  v27.205c0,2.66-4.313,4.817-9.633,4.817H148.545c-5.32,0-9.633-2.157-9.633-4.817v-27.205c0-2.66,4.313-4.817,9.633-4.817h49.594  H235.564z"/>
<path d="M471.1,0H87.719c-4.152,0-7.517,3.365-7.517,7.517s3.366,7.517,7.517,7.517h13.042  c-3.344,27.336-25.031,49.067-52.345,52.48v-52.48h5.361c4.152,0,7.517-3.365,7.517-7.517S57.929,0,53.777,0H40.899  c-4.152,0-7.517,3.365-7.517,7.517v249.481c0,4.153,3.366,7.517,7.517,7.517h153.126v25.977c0,4.153,3.366,7.517,7.517,7.517  s7.517-3.365,7.517-7.517v-25.977h29.011v25.977c0,4.153,3.366,7.517,7.517,7.517s7.517-3.365,7.517-7.517v-25.977h27.878v25.977  c0,4.153,3.366,7.517,7.517,7.517c4.152,0,7.517-3.365,7.517-7.517v-25.977h29.196v50.495l-18.393,18.768  c-5.22-0.445-14.854-0.703-25.435,1.801c-21.196,5.018-36.04,18.519-42.925,39.043c-1.321,3.937,0.8,8.198,4.736,9.518  c0.793,0.267,1.599,0.393,2.392,0.393c3.142,0,6.072-1.985,7.125-5.128c12.444-37.09,53.879-30.618,55.618-30.327  c2.434,0.419,4.919-0.382,6.648-2.146l41.969-42.823l5.849-5.849c6.097-6.098,16.019-6.097,22.116-0.001  c2.936,2.937,4.552,6.864,4.552,11.058s-1.617,8.123-4.552,11.057l-44.408,44.409c-1.41,1.41-2.202,3.322-2.202,5.316v53.188  h-102.74c-4.152,0-7.517,3.365-7.517,7.517s3.366,7.517,7.517,7.517h122.633c1.167,0,2.116,0.949,2.116,2.116v54.408  c0,1.167-0.949,2.116-2.116,2.116H148.545c-1.167,0-2.116-0.949-2.116-2.116V440.44c0-1.167,0.949-2.116,2.116-2.116h49.594  c4.152,0,7.517-3.365,7.517-7.517s-3.366-7.517-7.517-7.517h-34.815V282.585c0-4.153-3.366-7.517-7.517-7.517  s-7.517,3.365-7.517,7.517v140.717c-9.339,0.138-16.895,7.767-16.895,17.137v54.408c0,9.458,7.694,17.151,17.151,17.151h209.652  c9.457,0,17.151-7.694,17.151-17.151V440.44c0-9.458-7.694-17.151-17.151-17.151h-4.858v-50.074l42.206-42.206  c5.775-5.775,8.957-13.478,8.957-21.69c0-8.21-3.18-15.914-8.957-21.69c-11.959-11.959-31.418-11.961-43.378,0l-11.918,11.919  v-35.033h98.867c4.152,0,7.517-3.365,7.517-7.517c0-4.153-3.366-7.517-7.517-7.517h-30.219  c3.504-28.046,26.321-50.161,54.686-52.574v60.092c0,4.153,3.366,7.517,7.517,7.517c4.152,0,7.517-3.365,7.517-7.517V7.517  C478.618,3.365,475.252,0,471.1,0z M463.583,67.764c-28.417-2.419-51.266-24.611-54.706-52.73h54.706V67.764z M48.416,197.156  c27.263,3.406,48.919,25.062,52.325,52.325H48.416V197.156z M393.754,249.481H115.885c-3.539-35.565-31.904-63.93-67.468-67.469  V82.658c35.616-3.543,64.009-31.986,67.481-67.623h277.845c3.548,36.419,33.128,65.308,69.841,67.803v98.994  C426.921,184.325,397.37,213.134,393.754,249.481z"/>
<path d="M255.999,40.107c-4.152,0-7.517,3.365-7.517,7.517s3.366,7.517,7.517,7.517c42.522,0,77.117,34.595,77.117,77.116  s-34.595,77.116-77.117,77.116s-77.116-34.595-77.116-77.116c0-30.494,18.02-58.184,45.906-70.543  c3.796-1.682,5.51-6.122,3.827-9.919c-1.682-3.795-6.124-5.51-9.919-3.826c-33.32,14.765-54.849,47.85-54.849,84.287  c0,50.812,41.339,92.15,92.15,92.15c50.812,0,92.151-41.338,92.151-92.15S306.812,40.107,255.999,40.107z"/>
<path d="M256.214,68.575c-4.152,0-7.517,3.365-7.517,7.517v7.036c-12.243,3.315-21.279,14.516-21.279,27.794  c0,14.02,10.097,19.527,19.007,24.387c1.926,1.05,3.918,2.137,5.924,3.34c0.038,0.022,0.076,0.045,0.114,0.066  c1.893,1.091,3.721,2.068,5.489,3.013c9.607,5.138,12.026,7.056,12.026,11.752c0,7.588-6.173,13.762-13.762,13.762  c-7.588,0-13.762-6.173-13.762-13.762c0-4.153-3.366-7.517-7.517-7.517s-7.517,3.365-7.517,7.517  c0,13.278,9.036,24.479,21.279,27.795v5.143c0,4.153,3.366,7.517,7.517,7.517c4.152,0,7.517-3.365,7.517-7.517v-5.143  c12.243-3.315,21.279-14.517,21.279-27.795c0-14.332-10.609-20.005-19.97-25.01c-1.647-0.881-3.349-1.79-5.019-2.75  c-2.247-1.346-4.357-2.497-6.399-3.61c-9.054-4.938-11.171-6.563-11.171-11.188c0-7.587,6.173-13.761,13.762-13.761  c7.589,0,13.762,6.173,13.762,13.761c0,4.153,3.366,7.517,7.517,7.517c4.152,0,7.517-3.365,7.517-7.517  c0-13.278-9.036-24.479-21.279-27.794v-7.036C263.731,71.94,260.366,68.575,256.214,68.575z"/>
<g>
</g>
<g>
</g>
<g>
</g>
<g>
</g>
<g>
</g>
<g>
</g>
<g>
</g>
<g>
</g>
<g>
</g>
<g>
</g>
<g>
</g>
<g>
</g>
<g>
</g>
<g>
</g>
<g>
</g>
</svg>
