<?xml version="1.0" encoding="utf-8"?>
<!-- Generator: Adobe Illustrator 21.0.0, SVG Export Plug-In . SVG Version: 6.00 Build 0)  -->
<svg version="1.1" id="Layer_1" xmlns="http://www.w3.org/2000/svg" xmlns:xlink="http://www.w3.org/1999/xlink" x="0px" y="0px"
	 viewBox="0 0 512 512" style="enable-background:new 0 0 512 512;" xml:space="preserve">
<style type="text/css">
	.st0{fill:#71CCE0;}
	.st1{fill:#DFDFDF;}
	.st2{fill:#4A555F;}
	.st3{fill:#FFD452;}
	.st4{fill:#F58E6F;}
	.st5{fill:#FFFFFF;}
	.st6{fill:none;}
</style>
<g>
	<g>
		<g>
			<g>
				<path class="st1" d="M256.022,60.837c-65.479,0-118.75,53.272-118.75,118.731c0,65.479,53.272,118.75,118.75,118.75
					c65.459,0,118.731-53.272,118.731-118.75C374.753,114.109,321.481,60.837,256.022,60.837z M308.701,260.671l-52.679-27.712
					l-52.699,27.712l10.054-58.684l-42.625-41.558l58.921-8.552l26.349-53.391l26.33,53.391l58.921,8.552l-42.625,41.558
					L308.701,260.671z"/>
			</g>
		</g>
	</g>
	<g>
		<g>
			<g>
				<path class="st2" d="M347.641,158.367l-63.312-9.199l-28.314-57.37l-28.313,57.37l-63.313,9.199l45.814,44.657l-10.815,63.056
					l56.628-29.771l56.627,29.771l-10.815-63.056L347.641,158.367z M304.772,255.247l-48.757-25.634l-48.758,25.634l9.311-54.293
					l-39.445-38.449l54.514-7.92l24.378-49.398l24.379,49.398l54.512,7.92l-39.445,38.449L304.772,255.247z"/>
			</g>
		</g>
	</g>
	<g>
		<g>
			<g>
				<path class="st2" d="M427.045,196.198c5.43-3.893,8.545-9.947,8.545-16.61c0-6.699-3.117-12.763-8.553-16.635
					c-3.784-2.722-6.045-7.135-6.045-11.808c0-3.121,0.976-6.101,2.82-8.612c2.614-3.544,3.995-7.724,3.995-12.089
					c0-8.956-5.733-16.806-14.271-19.534c-6.055-1.927-10.123-7.491-10.123-13.847c0-1.57,0.249-3.109,0.739-4.579
					c2.091-6.308,1.059-13.017-2.833-18.408c-3.891-5.388-9.93-8.479-16.707-8.479c-0.031,0-0.062,0-0.09,0
					c-3.86,0-7.492-1.499-10.237-4.226c-2.768-2.752-4.292-6.414-4.292-10.393c0.031-5.495-2.074-10.656-5.93-14.533
					c-5.37-5.403-13.5-7.466-20.963-5.005c-1.466,0.489-3.005,0.737-4.574,0.737c-6.354,0-11.919-4.068-13.848-10.127
					c-2.728-8.533-10.576-14.267-19.532-14.267c-4.365,0-8.545,1.381-12.087,3.993c-3.154,2.319-7.02,3.256-10.889,2.647
					c-3.868-0.613-7.257-2.7-9.541-5.883C268.722,3.113,262.669,0,256.022,0c-6.684,0-12.746,3.115-16.629,8.544
					c-2.72,3.79-7.137,6.054-11.815,6.054c-3.121,0-6.099-0.976-8.611-2.819c-3.543-2.614-7.723-3.996-12.088-3.996
					c-8.956,0-16.805,5.734-19.534,14.27c-1.927,6.056-7.484,10.124-13.829,10.124c-1.582,0-3.117-0.247-4.578-0.739
					c-6.317-2.094-13.04-1.058-18.433,2.838c-5.386,3.891-8.474,9.928-8.474,16.703c0.023,3.893-1.476,7.559-4.225,10.324
					c-2.752,2.769-6.416,4.294-10.395,4.294c-0.042,0-0.085,0-0.125,0c-5.447,0-10.559,2.102-14.407,5.927
					c-3.855,3.832-6.066,9.116-6.066,14.497c0,2.156,0.355,4.329,1.061,6.466c0.488,1.471,0.737,3.01,0.737,4.576
					c0,6.355-4.068,11.92-10.127,13.848c-8.534,2.729-14.268,10.578-14.268,19.533c0,4.362,1.381,8.542,3.993,12.084
					c1.846,2.514,2.822,5.493,2.822,8.616c0,4.677-2.263,9.094-6.049,11.812c-5.432,3.886-8.547,9.948-8.547,16.631
					c0,6.648,3.113,12.701,8.543,16.609c3.791,2.72,6.053,7.137,6.053,11.815c0,3.122-0.976,6.101-2.818,8.612
					c-2.616,3.546-3.997,7.726-3.997,12.089c0,8.955,5.734,16.805,14.272,19.532c6.055,1.928,10.123,7.493,10.123,13.849
					c0,1.565-0.249,3.105-0.739,4.577c-2.091,6.308-1.059,13.016,2.832,18.407c3.891,5.389,9.932,8.48,16.708,8.48
					c3.978-0.042,7.563,1.478,10.328,4.226c2.768,2.752,4.292,6.413,4.292,10.393c-0.033,5.494,2.071,10.655,5.925,14.532
					c5.382,5.412,13.528,7.469,20.997,5.004c1.443-0.486,2.979-0.733,4.562-0.733c6.344,0,11.901,4.068,13.831,10.126
					c2.728,8.535,10.578,14.268,19.532,14.268c4.363,0,8.543-1.381,12.083-3.992c2.516-1.847,5.494-2.823,8.617-2.823
					c4.678,0,9.095,2.263,11.809,6.045c3.873,5.434,9.936,8.551,16.635,8.551c6.665,0,12.718-3.114,16.61-8.543
					c2.72-3.79,7.143-6.053,11.834-6.053c3.109,0,6.08,0.976,8.591,2.82c3.545,2.614,7.726,3.995,12.089,3.995
					c8.954,0,16.805-5.734,19.534-14.271c1.927-6.055,7.492-10.123,13.846-10.123c1.57,0,3.109,0.248,4.579,0.738
					c6.302,2.092,13.017,1.06,18.408-2.832c5.389-3.891,8.479-9.931,8.479-16.709c-0.023-3.893,1.476-7.559,4.224-10.325
					c2.753-2.768,6.414-4.293,10.395-4.293c0.042,0,0.085,0,0.125,0c5.447,0,10.559-2.102,14.407-5.927
					c3.856-3.833,6.066-9.117,6.066-14.497c0-2.155-0.355-4.327-1.061-6.47c-0.49-1.463-0.737-3.001-0.737-4.572
					c0-6.356,4.068-11.921,10.127-13.85c8.534-2.727,14.267-10.575,14.267-19.531c0-4.364-1.381-8.544-3.991-12.084
					c-1.848-2.517-2.824-5.497-2.824-8.617C420.992,203.335,423.255,198.918,427.045,196.198z M423.59,191.383
					c-5.337,3.832-8.524,10.048-8.524,16.629c0,4.39,1.374,8.582,3.978,12.128c1.855,2.518,2.837,5.483,2.837,8.572
					c0,6.367-4.078,11.948-10.142,13.886c-8.524,2.713-14.251,10.547-14.251,19.495c0,2.209,0.351,4.379,1.038,6.437
					c0.503,1.532,0.76,3.081,0.76,4.604c0,3.813-1.574,7.566-4.319,10.294c-2.75,2.735-6.402,4.265-10.438,4.204
					c-5.488,0-10.642,2.146-14.513,6.041c-3.869,3.894-5.981,9.056-5.949,14.64c0,4.715-2.195,9.004-6.024,11.768
					c-3.827,2.764-8.59,3.498-13.069,2.014c-2.069-0.69-4.24-1.041-6.448-1.041c-8.946,0-16.78,5.727-19.492,14.248
					c-1.94,6.068-7.521,10.146-13.888,10.146c-3.088,0-6.053-0.982-8.578-2.842c-3.538-2.599-7.724-3.972-12.102-3.972
					c-6.595,0-12.818,3.187-16.649,8.525c-2.766,3.859-7.065,6.071-11.795,6.071c-4.758,0-9.062-2.211-11.814-6.072
					c-3.831-5.337-10.046-8.524-16.629-8.524c-4.394,0-8.585,1.373-12.129,3.976c-2.518,1.857-5.482,2.838-8.57,2.838
					c-6.368,0-11.948-4.078-13.887-10.143c-2.714-8.524-10.542-14.251-19.476-14.251c-2.23,0-4.402,0.351-6.437,1.037
					c-5.314,1.752-11.089,0.294-14.918-3.559c-2.733-2.75-4.226-6.416-4.203-10.436c0-5.488-2.145-10.642-6.042-14.514
					c-3.861-3.84-8.975-5.949-14.509-5.949c-4.685,0.004-9.11-2.16-11.897-6.023c-2.764-3.829-3.497-8.593-2.014-13.069
					c0.69-2.075,1.042-4.244,1.042-6.447c0-8.947-5.727-16.781-14.247-19.494c-6.07-1.939-10.148-7.52-10.148-13.887
					c0-3.088,0.982-6.052,2.844-8.577c2.598-3.54,3.971-7.732,3.971-12.123c0-6.581-3.187-12.798-8.52-16.627
					c-3.861-2.778-6.076-7.078-6.076-11.796c0-4.747,2.213-9.052,6.074-11.815c5.335-3.831,8.522-10.047,8.522-16.628
					c0-4.394-1.373-8.586-3.975-12.128c-1.858-2.52-2.84-5.484-2.84-8.572c0-6.367,4.078-11.949,10.145-13.888
					c8.524-2.713,14.251-10.546,14.251-19.493c0-2.203-0.351-4.372-1.038-6.439c-0.505-1.531-0.76-3.079-0.76-4.604
					c0-3.814,1.574-7.566,4.319-10.294c2.729-2.713,6.358-4.203,10.343-4.203c5.55,0.081,10.715-2.124,14.61-6.042
					c3.868-3.893,5.979-9.056,5.947-14.639c0-4.712,2.193-9,6.019-11.762c3.834-2.768,8.613-3.504,13.084-2.022
					c2.056,0.693,4.228,1.044,6.456,1.044c8.935,0,16.762-5.728,19.474-14.249c1.941-6.068,7.521-10.145,13.889-10.145
					c3.09,0,6.053,0.982,8.576,2.843c3.541,2.598,7.733,3.972,12.123,3.972c6.582,0,12.798-3.187,16.631-8.529
					c2.76-3.857,7.065-6.069,11.812-6.069c4.718,0,9.018,2.214,11.795,6.074c3.216,4.476,7.984,7.415,13.428,8.276
					c5.441,0.857,10.885-0.461,15.329-3.728c2.517-1.858,5.482-2.839,8.572-2.839c6.367,0,11.948,4.077,13.886,10.142
					c2.714,8.524,10.547,14.252,19.494,14.252c2.207,0,4.377-0.35,6.439-1.038c5.345-1.768,11.078-0.285,14.897,3.558
					c2.733,2.75,4.228,6.416,4.205,10.437c0,5.488,2.145,10.643,6.042,14.515c3.862,3.84,8.975,5.95,14.509,5.949
					c4.788-0.031,9.108,2.16,11.896,6.022c2.767,3.829,3.5,8.593,2.016,13.068c-0.691,2.071-1.042,4.241-1.042,6.45
					c0,8.948,5.727,16.781,14.247,19.492c6.068,1.939,10.146,7.522,10.146,13.889c0,3.089-0.982,6.054-2.841,8.576
					c-2.6,3.54-3.974,7.732-3.974,12.124c0,6.581,3.187,12.797,8.524,16.628l0.01,0.006c3.854,2.747,6.064,7.05,6.064,11.809
					C429.665,184.318,427.452,188.617,423.59,191.383z"/>
			</g>
		</g>
	</g>
	<g>
		<g>
			<g>
				<path class="st3" d="M419.559,173.39c-7.141-5.127-11.406-13.443-11.406-22.244c0-5.873,1.838-11.48,5.326-16.231
					c1.23-1.67,1.489-3.353,1.489-4.47c0-2.786-1.651-6.124-5.324-7.299c-11.406-3.629-19.069-14.11-19.069-26.081
					c0-2.956,0.471-5.863,1.391-8.618c0.777-2.347,0.393-4.845-1.056-6.853c-1.448-2.005-3.693-3.156-6.163-3.156h-0.226
					c-7.307,0.001-14.177-2.847-19.349-8.02c-5.172-5.172-8.019-12.047-8.019-19.513c0.016-2.629-1.184-4.391-2.195-5.407
					c-1.439-1.449-3.404-2.279-5.39-2.279c-0.791,0-1.61,0.139-2.407,0.401c-2.777,0.926-5.683,1.396-8.636,1.396
					c-11.969,0-22.451-7.663-26.077-19.056c-1.179-3.687-4.518-5.337-7.303-5.337c-1.117,0-2.801,0.259-4.479,1.497
					c-4.736,3.482-10.339,5.323-16.207,5.323c-8.806,0.001-17.127-4.264-22.252-11.401c-1.464-2.035-3.719-3.202-6.186-3.202
					c-2.488,0-4.745,1.158-6.198,3.19c-5.127,7.143-13.442,11.408-22.246,11.408c-5.872,0-11.479-1.837-16.234-5.327
					c-1.667-1.229-3.349-1.488-4.465-1.488c-2.786,0-6.125,1.65-7.299,5.326c-3.63,11.405-14.104,19.067-26.063,19.067
					c-2.982,0-5.897-0.472-8.613-1.389c-0.804-0.266-1.622-0.401-2.433-0.401c-3.655,0-7.6,2.913-7.6,7.675
					c0.044,7.337-2.782,14.246-7.957,19.454c-5.181,5.212-12.077,8.082-19.42,8.082h-0.208c-4.714,0-7.633,3.937-7.633,7.585
					c0,0.788,0.139,1.61,0.403,2.411c0.926,2.78,1.395,5.683,1.395,8.631c0,11.97-7.664,22.451-19.056,26.077
					c-3.688,1.178-5.339,4.518-5.339,7.303c0,1.117,0.258,2.799,1.502,4.487c3.476,4.733,5.312,10.34,5.312,16.215
					c0,8.802-4.263,17.118-11.417,22.253c-2.02,1.446-3.179,3.701-3.179,6.19c0,2.467,1.167,4.721,3.192,6.178
					c7.141,5.126,11.404,13.442,11.404,22.245c0,5.875-1.836,11.482-5.324,16.232c-1.233,1.671-1.491,3.352-1.491,4.468
					c0,2.786,1.651,6.124,5.328,7.3c11.406,3.631,19.067,14.112,19.067,26.082c0,2.945-0.469,5.849-1.391,8.619
					c-0.779,2.347-0.394,4.843,1.055,6.85c1.447,2.006,3.694,3.157,6.163,3.157h0.226c15.09,0,27.368,12.281,27.368,27.534
					c-0.016,2.627,1.184,4.389,2.193,5.405c1.439,1.449,3.405,2.279,5.392,2.279c0.814,0,1.619-0.135,2.397-0.392
					c2.768-0.932,5.683-1.406,8.663-1.406c11.957,0,22.432,7.663,26.06,19.057c1.179,3.688,4.518,5.338,7.303,5.338
					c1.117,0,2.797-0.259,4.485-1.503c4.733-3.475,10.339-5.312,16.214-5.312c8.804,0,17.121,4.264,22.266,11.435
					c1.431,2.009,3.684,3.162,6.178,3.162c2.475,0,4.724-1.161,6.179-3.189c5.125-7.143,13.448-11.407,22.266-11.407
					c5.86,0,11.459,1.837,16.21,5.324c1.671,1.233,3.353,1.491,4.47,1.491c2.785,0,6.124-1.65,7.299-5.327
					c3.632-11.406,14.112-19.068,26.081-19.068c2.951,0,5.856,0.47,8.62,1.392c0.799,0.265,1.613,0.399,2.419,0.399
					c3.65,0,7.588-2.913,7.588-7.675c-0.044-7.337,2.782-14.246,7.957-19.455c5.181-5.211,12.077-8.081,19.418-8.081h0.21
					c2.652,0,4.417-1.235,5.43-2.269c1.4-1.431,2.203-3.369,2.203-5.315c0-0.788-0.139-1.609-0.399-2.402
					c-0.928-2.778-1.398-5.685-1.398-8.639c0-11.971,7.662-22.453,19.058-26.079c3.686-1.178,5.335-4.517,5.335-7.303
					c0-1.118-0.259-2.8-1.501-4.485c-3.476-4.735-5.314-10.342-5.314-16.215c0-8.802,4.265-17.118,11.411-22.249
					c2.025-1.451,3.187-3.701,3.187-6.174C422.751,177.094,421.598,174.842,419.559,173.39z M256.022,318.071
					c-76.37,0-138.503-62.132-138.503-138.503c0-76.359,62.133-138.483,138.503-138.483c76.361,0,138.484,62.123,138.484,138.483
					C394.506,255.939,332.383,318.071,256.022,318.071z"/>
			</g>
		</g>
	</g>
	<g>
		<g>
			<path class="st2" d="M406.527,300.433l-5.235,2.774l67.279,127.037l-35.008-15.141c-16-6.919-34.015-6.21-49.419,1.951
				c-15.406,8.161-26.114,22.664-29.377,39.79l-7.137,37.464l-68.463-129.304l-5.235,2.772L350.291,512l10.296-54.047
				c2.924-15.349,12.521-28.348,26.33-35.663c13.807-7.316,29.955-7.951,44.292-1.748l50.494,21.838L406.527,300.433z"/>
		</g>
	</g>
	<g>
		<g>
			<path class="st4" d="M399.553,314.692c-2.857,0.861-5.829,1.378-8.869,1.534c-0.482,9.195-4.261,17.739-10.756,24.232
				c-6.959,7.015-16.585,11.038-26.405,11.038c-3.231,0-6.457-0.425-9.635-1.272c-5.515,14.367-19.228,23.87-34.788,23.87
				c-7.199,0-14.132-2.061-20.17-5.97c-0.108,0.097-0.088,0.079-0.196,0.177l55.789,105.37l3.921-20.581
				c7.435-39.017,49.11-61.094,85.565-45.325l19.24,8.322L399.553,314.692z"/>
		</g>
	</g>
	<g>
		<g>
			<path class="st2" d="M232.834,365.004l-68.463,129.304l-7.137-37.464c-3.264-17.126-13.971-31.629-29.377-39.79
				c-15.403-8.16-33.417-8.872-49.419-1.951l-35.008,15.141l67.279-127.037l-5.235-2.774L30.297,442.381l50.494-21.838
				c14.341-6.204,30.487-5.567,44.292,1.748c13.809,7.314,23.406,20.313,26.33,35.663L161.709,512l76.361-144.224L232.834,365.004z"
				/>
		</g>
	</g>
	<g>
		<g>
			<path class="st4" d="M223.07,368.124c-6.038,3.909-12.971,5.97-20.169,5.97c-15.561,0-29.274-9.503-34.789-23.87
				c-3.179,0.848-6.404,1.272-9.635,1.272c-9.82,0-19.446-4.023-26.405-11.038c-6.495-6.494-10.273-15.037-10.756-24.232
				c-3.04-0.156-6.012-0.673-8.869-1.534L58.751,416.086l19.24-8.322c36.455-15.768,78.13,6.308,85.565,45.325l3.922,20.581
				l55.788-105.37C223.158,368.203,223.178,368.221,223.07,368.124z"/>
		</g>
	</g>
	<g>
		<g>
			<g>
				<path class="st2" d="M136.596,140.355l-5.632-1.846c-0.633,1.931-1.223,3.883-1.753,5.802l5.709,1.582
					C135.427,144.061,135.991,142.198,136.596,140.355z M133.502,151.503l-5.779-1.313c-0.449,1.979-0.856,3.976-1.209,5.935
					l5.833,1.049C132.683,155.303,133.072,153.394,133.502,151.503z M140.72,129.519l-5.436-2.361
					c-0.8,1.844-1.572,3.736-2.29,5.624l5.536,2.108C139.218,133.087,139.955,131.28,140.72,129.519z M131.456,162.892l-5.875-0.779
					c-0.262,1.985-0.484,4.012-0.656,6.024l5.902,0.507C130.993,166.721,131.203,164.787,131.456,162.892z M175.036,83.49
					l-3.823-4.529c-1.536,1.296-3.061,2.646-4.537,4.011l4.024,4.35C172.11,86.017,173.568,84.727,175.036,83.49z M166.541,91.347
					l-4.221-4.161c-1.404,1.425-2.803,2.909-4.155,4.41l4.406,3.964C163.862,94.126,165.198,92.708,166.541,91.347z M158.798,99.952
					l-4.583-3.758c-1.27,1.548-2.525,3.155-3.735,4.775l4.749,3.543C156.385,102.965,157.585,101.431,158.798,99.952z
					 M145.83,119.116l-5.193-2.853c-0.968,1.762-1.91,3.573-2.799,5.383l5.316,2.614C144.005,122.531,144.906,120.8,145.83,119.116z
					 M137,219.997l-5.613,1.9c0.639,1.886,1.339,3.803,2.082,5.696l5.517-2.164C138.276,223.622,137.607,221.795,137,219.997z
					 M159.527,260.08l-4.548,3.796c1.285,1.54,2.625,3.075,3.987,4.561l4.371-4.002C162.037,263.015,160.754,261.55,159.527,260.08z
					 M141.22,230.754l-5.412,2.413c0.813,1.826,1.686,3.664,2.592,5.466l5.293-2.662
					C142.829,234.251,141.997,232.496,141.22,230.754z M130.358,179.569c0-1.724,0.035-3.44,0.104-5.147l-5.922-0.241
					c-0.073,1.786-0.108,3.583-0.108,5.388l0.002,0.68l5.925-0.052L130.358,179.569z M152.529,250.874l-4.876,3.364
					c1.142,1.659,2.338,3.309,3.551,4.905l4.718-3.587C154.763,254.032,153.623,252.458,152.529,250.874z M133.793,208.88
					l-5.764,1.373c0.465,1.952,0.984,3.924,1.543,5.863l5.694-1.643C134.733,212.624,134.237,210.742,133.793,208.88z
					 M130.52,185.998l-5.918,0.293c0.101,2.005,0.249,4.039,0.442,6.045l5.898-0.569
					C130.757,189.852,130.615,187.911,130.52,185.998z M131.631,197.515l-5.868,0.837c0.285,2,0.621,4.012,0.995,5.979l5.821-1.109
					C132.222,201.345,131.903,199.424,131.631,197.515z M146.405,241.071l-5.166,2.901c0.974,1.736,2.014,3.489,3.086,5.208
					l5.027-3.14C148.326,244.399,147.334,242.728,146.405,241.071z M351.701,98.126l4.514-3.839
					c-1.296-1.524-2.654-3.046-4.036-4.523l-4.328,4.047C349.17,95.221,350.465,96.673,351.701,98.126z M370.3,127.275l5.39-2.467
					c-0.833-1.819-1.723-3.649-2.645-5.439l-5.27,2.712C368.656,123.79,369.505,125.538,370.3,127.275z M374.626,137.994l5.59-1.963
					c-0.667-1.901-1.387-3.809-2.135-5.67l-5.498,2.216C373.301,134.354,373.988,136.177,374.626,137.994z M358.792,107.263
					l4.845-3.41c-1.148-1.631-2.359-3.27-3.603-4.87l-4.68,3.634C356.541,104.145,357.698,105.708,358.792,107.263z
					 M365.007,117.008l5.139-2.953c-0.997-1.736-2.052-3.478-3.137-5.176l-4.996,3.187
					C363.047,113.687,364.054,115.35,365.007,117.008z M184.206,76.444l-3.395-4.857c-1.663,1.162-3.304,2.365-4.88,3.575
					l3.607,4.701C181.068,78.69,182.626,77.549,184.206,76.444z M381.439,171.922l5.914-0.351c-0.118-2.003-0.288-4.035-0.501-6.041
					l-5.891,0.628C381.164,168.072,381.326,170.011,381.439,171.922z M380.216,160.417l5.856-0.893
					c-0.303-1.996-0.658-4.005-1.053-5.97l-5.81,1.167C379.585,156.595,379.925,158.512,380.216,160.417z M377.938,149.072
					l5.752-1.426c-0.48-1.937-1.019-3.905-1.603-5.851l-5.675,1.701C376.968,145.352,377.481,147.228,377.938,149.072z
					 M204.273,65.036l-2.446-5.398c-1.836,0.831-3.669,1.712-5.449,2.62l2.688,5.279C200.766,66.672,202.518,65.83,204.273,65.036z
					 M215.007,60.766l-1.933-5.602c-1.902,0.657-3.812,1.366-5.681,2.109l2.191,5.505C211.367,62.07,213.192,61.392,215.007,60.766z
					 M193.982,70.277l-2.932-5.15c-1.742,0.991-3.487,2.038-5.187,3.111l3.159,5.011C190.649,72.224,192.317,71.224,193.982,70.277z
					 M347.943,85.434c-1.435-1.402-2.928-2.794-4.435-4.136l-3.939,4.427c1.437,1.28,2.861,2.608,4.23,3.947L347.943,85.434z
					 M338.895,77.372c-1.561-1.269-3.173-2.518-4.793-3.714l-3.519,4.768c1.545,1.141,3.084,2.333,4.578,3.544L338.895,77.372z
					 M329.142,70.174c-1.651-1.109-3.374-2.207-5.117-3.262l-3.067,5.071c1.665,1.007,3.308,2.053,4.882,3.11L329.142,70.174z
					 M226.106,57.502l-1.404-5.756c-1.96,0.478-3.929,1.008-5.853,1.574l1.67,5.685C222.356,58.465,224.237,57.959,226.106,57.502z
					 M151.875,109.235l-4.907-3.323c-1.128,1.666-2.234,3.382-3.283,5.101l5.054,3.091
					C149.744,112.463,150.797,110.825,151.875,109.235z M319.11,288.268l2.982,5.121c1.738-1.012,3.474-2.076,5.16-3.163
					l-3.214-4.979C322.43,286.284,320.772,287.301,319.11,288.268z M310.777,66.45c1.723,0.835,3.457,1.727,5.154,2.648l2.828-5.206
					c-1.776-0.966-3.592-1.899-5.397-2.774L310.777,66.45z M328.824,282.004l3.441,4.824c1.646-1.173,3.275-2.392,4.847-3.624
					l-3.653-4.664C331.957,279.716,330.398,280.882,328.824,282.004z M337.929,274.868l3.865,4.493c1.516-1.305,3.03-2.67,4.5-4.057
					l-4.07-4.309C340.822,272.32,339.377,273.623,337.929,274.868z M300.124,61.88c1.805,0.676,3.615,1.403,5.377,2.16l2.338-5.445
					c-1.848-0.794-3.744-1.555-5.636-2.265L300.124,61.88z M298.177,297.987l1.987,5.582c1.888-0.671,3.792-1.4,5.661-2.165
					l-2.245-5.484C301.796,296.65,299.979,297.346,298.177,297.987z M308.869,293.61l2.496,5.374
					c1.829-0.849,3.653-1.749,5.426-2.673l-2.739-5.254C312.358,291.94,310.615,292.799,308.869,293.61z M289.1,58.323
					c1.846,0.502,3.711,1.057,5.543,1.648l1.821-5.638c-1.921-0.62-3.875-1.202-5.81-1.727L289.1,58.323z M346.342,266.928
					l4.263,4.116c1.396-1.446,2.779-2.943,4.108-4.45l-4.44-3.922C349,264.114,347.679,265.545,346.342,266.928z M378.791,206.446
					l5.791,1.256c0.43-1.983,0.818-3.983,1.15-5.947l-5.841-0.991C379.572,202.638,379.202,204.551,378.791,206.446z
					 M163.162,272.809c1.423,1.42,2.901,2.826,4.39,4.178l3.985-4.386c-1.422-1.291-2.834-2.633-4.194-3.989L163.162,272.809z
					 M375.807,217.624l5.648,1.788c0.61-1.92,1.179-3.877,1.698-5.816l-5.725-1.53C376.932,213.919,376.388,215.789,375.807,217.624
					z M354.006,258.246l4.62,3.711c1.256-1.563,2.496-3.183,3.686-4.811l-4.784-3.497
					C356.39,255.205,355.206,256.752,354.006,258.246z M387.579,177.621l-5.926,0.091c0.01,0.617,0.014,1.237,0.014,1.857
					c0,1.316-0.021,2.626-0.06,3.932l5.921,0.179c0.042-1.365,0.064-2.736,0.064-4.112
					C387.593,178.918,387.589,178.269,387.579,177.621z M371.787,228.5l5.459,2.309c0.787-1.862,1.539-3.762,2.235-5.648
					l-5.559-2.052C373.259,224.908,372.539,226.723,371.787,228.5z M360.836,248.898l4.942,3.271
					c1.105-1.671,2.191-3.397,3.231-5.132l-5.084-3.044C362.931,245.652,361.894,247.302,360.836,248.898z M366.783,238.956
					l5.22,2.802c0.949-1.769,1.873-3.59,2.747-5.412l-5.343-2.562C368.571,235.526,367.69,237.266,366.783,238.956z
					 M380.726,195.034l5.879,0.727c0.245-1.975,0.448-4.006,0.602-6.033l-5.91-0.449
					C381.15,191.215,380.957,193.151,380.726,195.034z M225.987,307.714c1.942,0.455,3.939,0.873,5.932,1.242l1.08-5.827
					c-1.904-0.352-3.808-0.75-5.662-1.184L225.987,307.714z M214.326,304.416c1.902,0.636,3.853,1.237,5.793,1.785l1.612-5.702
					c-1.852-0.524-3.711-1.098-5.526-1.704L214.326,304.416z M202.996,300.04c1.848,0.814,3.736,1.594,5.613,2.32l2.137-5.528
					c-1.794-0.692-3.595-1.437-5.358-2.214L202.996,300.04z M230.624,50.447l1.134,5.816c1.89-0.37,3.81-0.698,5.704-0.979
					l-0.868-5.862C234.609,49.716,232.601,50.061,230.624,50.447z M181.812,288.257c1.659,1.134,3.368,2.247,5.083,3.307
					l3.117-5.038c-1.638-1.014-3.271-2.077-4.855-3.161L181.812,288.257z M172.129,280.958c1.543,1.279,3.143,2.544,4.755,3.76
					l3.569-4.731c-1.542-1.161-3.069-2.37-4.543-3.591L172.129,280.958z M237.904,309.92c1.989,0.274,4.012,0.505,6.018,0.688
					l0.54-5.9c-1.917-0.176-3.85-0.396-5.748-0.658L237.904,309.92z M192.128,294.635c1.769,0.985,3.576,1.937,5.37,2.829
					l2.639-5.307c-1.713-0.852-3.438-1.76-5.127-2.699L192.128,294.635z M277.806,55.805c1.902,0.333,3.81,0.712,5.675,1.127
					l1.289-5.783c-1.952-0.436-3.951-0.833-5.941-1.181L277.806,55.805z M275.78,303.69l0.926,5.852
					c1.995-0.315,3.999-0.68,5.958-1.083l-1.192-5.804C279.6,303.04,277.684,303.388,275.78,303.69z M287.107,301.357l1.462,5.742
					c1.948-0.495,3.912-1.044,5.837-1.63l-1.725-5.669C290.843,300.361,288.968,300.884,287.107,301.357z M242.61,48.674
					l0.594,5.895c1.91-0.193,3.85-0.344,5.771-0.451l-0.328-5.916C246.638,48.313,244.607,48.471,242.61,48.674z M266.331,54.341
					c1.912,0.154,3.846,0.357,5.752,0.6l0.752-5.877c-1.999-0.256-4.026-0.467-6.026-0.629L266.331,54.341z M264.276,304.967
					l0.386,5.912c2.023-0.131,4.052-0.311,6.035-0.53l-0.656-5.889C268.149,304.67,266.209,304.841,264.276,304.967z
					 M250.231,305.101l-0.266,5.92c2.014,0.091,4.053,0.137,6.057,0.137c0.862,0,1.725-0.008,2.585-0.025l-0.116-5.924
					C255.758,305.261,252.988,305.225,250.231,305.101z M254.707,48.005l0.054,5.926l1.261-0.007c1.516,0,3.025,0.026,4.529,0.08
					l0.212-5.922c-1.574-0.056-3.156-0.084-4.747-0.084L254.707,48.005z"/>
			</g>
		</g>
	</g>
</g>
</svg>
