<?xml version="1.0" encoding="utf-8"?>
<!-- Generator: Adobe Illustrator 24.0.0, SVG Export Plug-In . SVG Version: 6.00 Build 0)  -->
<svg version="1.1" xmlns="http://www.w3.org/2000/svg" xmlns:xlink="http://www.w3.org/1999/xlink" x="0px" y="0px"
	 viewBox="0 0 256 256" enable-background="new 0 0 256 256" xml:space="preserve">
<g id="Layer_2" display="none">
	<rect x="-764" y="-5160" display="inline" fill="#FFFFFF" width="1786" height="5896"/>
</g>
<g id="Layer_1">
	<g>
		<path fill="#F0C020" d="M243.949,156.173c-1.566,5.542-6.975,9.673-12.55,9.673h-10.751c-4.687-6.086-12.05-9.995-20.324-9.995
			c-8.285,0-15.648,3.909-20.335,9.995h-57.218c-10.271-13.337-30.395-13.315-40.648,0H64.465c-5.575,0-9.673-4.132-9.485-9.673
			c1.773-56.866,54.125-107.218,111.46-107.218C223.79,48.956,260.201,99.367,243.949,156.173z"/>
		<path fill="#F8E5B0" d="M232.979,158.351H105.108c-3.303,0-3.308-5,0-5h126.967c10.398-38.078-6.374-72.239-36.773-85.688
			c-1.263-0.559-1.833-2.035-1.274-3.298c0.559-1.263,2.034-1.834,3.298-1.274c32.913,14.562,50.916,51.641,39.312,92.519
			C236.185,157.199,234.646,158.351,232.979,158.351z M95.108,158.351H66.051c-1.381,0-2.5-1.119-2.5-2.5s1.119-2.5,2.5-2.5h29.058
			c1.381,0,2.5,1.119,2.5,2.5S96.489,158.351,95.108,158.351z"/>
		<path fill="#EFEFEF" d="M162.913,71.26c-40.214,0-78.111,32.716-84.48,72.93h145.859C230.661,103.976,203.127,71.26,162.913,71.26
			z"/>
		<path fill="#FC5D3D" d="M159.532,152.054c-5.1,4.402-12.237,4.402-15.942,0c-3.705-4.402-2.575-11.54,2.525-15.942
			c5.1-4.402,29.603-11.793,29.603-11.793S164.632,147.652,159.532,152.054z"/>
		<path fill="#72C2E9" d="M128.136,181.529c0,14.193-11.506,25.688-25.688,25.688c-14.182,0-25.677-11.495-25.677-25.688
			c0-5.909,1.999-11.339,5.353-15.682c10.271-13.337,30.395-13.315,40.648,0C126.136,170.189,128.136,175.62,128.136,181.529z"/>
		<path fill="#7D7B79" d="M102.447,192.779c-6.197,0-11.239-5.047-11.239-11.25c0-6.046,4.878-11.239,11.239-11.239
			c6.371,0,11.25,5.211,11.25,11.239C113.697,187.732,108.65,192.779,102.447,192.779z"/>
		<path fill="#72C2E9" d="M226.002,181.529c0,14.193-11.495,25.688-25.677,25.688c-14.194,0-25.688-11.495-25.688-25.688
			c0-5.909,1.999-11.339,5.353-15.682c4.687-6.086,12.05-9.995,20.335-9.995c8.274,0,15.637,3.909,20.324,9.995
			C224.003,170.189,226.002,175.62,226.002,181.529z"/>
		<path fill="#7D7B79" d="M200.324,192.779c-6.204,0-11.25-5.047-11.25-11.25c0-6.074,4.901-11.239,11.25-11.239
			c6.388,0,11.239,5.218,11.239,11.239C211.564,187.732,206.522,192.779,200.324,192.779z"/>
		<g>
			<path d="M166.47,46.457h-0.03c-35.593,0-69.529,18.988-90.979,47.21c-0.841,1.085-0.628,2.678,0.48,3.5
				c1.06,0.81,2.68,0.59,3.49-0.471c0,0,0.01,0,0.01-0.01c21.19-27.899,54.5-45.229,86.95-45.229h0.05
				c56.273,0.085,90.759,49.06,75.11,104.029c-1.18,4.33-5.69,7.86-10.05,7.86c-0.03,0-0.07,0-0.101,0h-9.56
				c-5.523-6.504-13.396-9.99-21.51-9.99h-0.011c-8.598,0-16.416,3.923-21.529,9.99h-54.82c-11.294-13.397-31.909-13.239-43.04,0
				H64.47c-3.935-0.076-6.99-2.505-6.99-7.09c0.438-14.07,4.211-28.942,11.51-43.05c0.608-1.178,0.209-2.699-1.07-3.37
				c-1.2-0.62-2.76-0.12-3.37,1.069c-7.75,14.987-11.597,30.567-12.07,45.141c0,0.01,0,0.01,0,0.01
				c-0.367,6.426,4.588,12.29,11.96,12.29h13.104c-2.149,4.031-3.274,8.508-3.274,13.18c0,4.681,1.17,9.32,3.38,13.4
				c0.67,1.233,2.197,1.655,3.39,1.01c1.21-0.649,1.66-2.17,1.01-3.38c-1.84-3.41-2.78-7.12-2.78-11.03
				c0-5.16,1.67-10.06,4.83-14.149c13.644-17.718,41.499-7.464,41.54,14.149c-0.03,12.761-10.43,23.17-23.19,23.19
				c-2.32,0-4.6-0.34-6.79-1.01c-1.3-0.4-2.72,0.359-3.12,1.659c-0.415,1.328,0.352,2.733,1.66,3.12c2.66,0.82,5.43,1.23,8.25,1.23
				c15.61,0,28.19-12.64,28.19-28.19c0-4.668-1.129-9.147-3.282-13.18h48.054c-2.151,4.034-3.271,8.515-3.271,13.18
				c0,15.533,12.533,28.19,28.18,28.19c15.66,0,28.181-12.671,28.181-28.19c0-4.663-1.124-9.142-3.273-13.18h6.172
				c6.841-0.063,13.043-4.883,14.95-11.49C263.056,98.855,225.726,46.457,166.47,46.457z M200.319,204.716
				c-12.76-0.021-23.159-10.43-23.189-23.19c0.01-5.17,1.68-10.06,4.84-14.149c4.42-5.74,11.11-9.021,18.35-9.021
				c12.778,0,23.181,10.355,23.181,23.17C223.479,194.287,213.08,204.696,200.319,204.716z"/>
			<path d="M70.41,105.497c1.1,0.714,2.687,0.441,3.45-0.771c0.723-1.178,0.4-2.705-0.78-3.45c-1.13-0.72-2.73-0.35-3.45,0.771
				C68.887,103.221,69.241,104.777,70.41,105.497z"/>
			<path d="M191.7,109.368c0.904,1.045,2.48,1.161,3.526,0.259l15.501-13.382c9.297,12.154,13.643,28.167,11.392,45.441h-15.88
				c-1.381,0-2.5,1.13-2.5,2.5c0,1.38,1.119,2.5,2.5,2.5h18.05c1.24,0,2.279-0.88,2.47-2.109
				c4.665-29.481-8.284-55.087-30.87-67.591c-1.18-0.649-2.76-0.189-3.399,0.971c-0.643,1.129-0.305,2.674,0.97,3.399
				c5.342,2.966,10.051,6.708,14.049,11.062l-15.55,13.424C190.914,106.744,190.798,108.323,191.7,109.368z"/>
			<path d="M154.158,146.234l0.598-0.516c1.046-0.901,1.162-2.48,0.26-3.525c-0.9-1.045-2.48-1.163-3.525-0.26l-0.598,0.516
				c-1.046,0.901-1.162,2.48-0.26,3.525C151.538,147.023,153.119,147.133,154.158,146.234z"/>
			<path d="M174.996,121.926c-2.561,0.772-25.167,7.678-30.515,12.293c-6.121,5.284-7.38,14.007-2.805,19.444
				c4.689,5.57,13.432,5.512,19.489,0.283c5.344-4.613,15.652-26.117,16.81-28.554C178.904,123.441,177.072,121.303,174.996,121.926
				z M157.898,150.162c-4.022,3.475-9.59,3.616-12.396,0.283c-2.822-3.354-1.814-8.936,2.246-12.44
				c2.841-2.452,13.952-6.561,23.17-9.559C166.532,137.204,160.747,147.703,157.898,150.162z"/>
			<path d="M184.75,77.426c1.335,0.461,2.725-0.27,3.18-1.521c0.46-1.3-0.22-2.72-1.51-3.189c0-0.01,0-0.01-0.01-0.01
				c-1.271-0.46-2.74,0.25-3.19,1.52c-0.47,1.29,0.21,2.73,1.51,3.19C184.729,77.417,184.74,77.426,184.75,77.426z"/>
			<path d="M176.399,70.006c-4.35-0.83-8.89-1.25-13.489-1.25c-41.559,0.08-80.281,33.508-86.95,75.04
				c-0.233,1.538,0.947,2.89,2.47,2.89h18.06c1.37,0,2.5-1.12,2.5-2.5c0-1.37-1.13-2.5-2.5-2.5H81.41
				c3.447-17.426,13.19-33.334,26.393-45.371l10.965,13.028c0.889,1.057,2.467,1.191,3.522,0.304
				c1.056-0.89,1.192-2.467,0.303-3.522l-11.001-13.071c13.862-11.322,30.934-18.523,48.384-19.226l-2.913,18.395
				c-0.217,1.363,0.714,2.644,2.078,2.859c1.333,0.217,2.641-0.692,2.859-2.078l3.041-19.199c3.555,0.108,7.053,0.469,10.429,1.112
				c1.33,0.25,2.66-0.66,2.92-1.99C178.64,71.566,177.75,70.256,176.399,70.006z"/>
			<path d="M87.76,199.466c-1.03-0.84-2.68-0.68-3.52,0.35c-0.87,1.07-0.72,2.65,0.35,3.521c1.123,0.896,2.654,0.696,3.52-0.351
				c0.847-1.028,0.749-2.604-0.34-3.5C87.77,199.476,87.77,199.476,87.76,199.466z"/>
			<path d="M102.447,195.279c7.582,0,13.75-6.168,13.75-13.75c0-7.576-6.168-13.739-13.75-13.739
				c-7.576,0-13.739,6.163-13.739,13.739C88.708,189.111,94.872,195.279,102.447,195.279z M102.447,172.79
				c4.825,0,8.75,3.921,8.75,8.739c0,4.825-3.925,8.75-8.75,8.75c-4.819,0-8.739-3.925-8.739-8.75
				C93.708,176.71,97.628,172.79,102.447,172.79z"/>
			<path d="M200.324,167.79c-7.582,0-13.75,6.163-13.75,13.739c0,7.582,6.168,13.75,13.75,13.75c7.576,0,13.739-6.168,13.739-13.75
				C214.063,173.953,207.9,167.79,200.324,167.79z M200.324,190.279c-4.825,0-8.75-3.925-8.75-8.75c0-4.818,3.925-8.739,8.75-8.739
				c4.818,0,8.739,3.921,8.739,8.739C209.063,186.354,205.143,190.279,200.324,190.279z"/>
			<path d="M54.45,112.816c0-1.38-1.12-2.5-2.49-2.5H8.21c-1.38,0-2.5,1.12-2.5,2.5s1.12,2.5,2.5,2.5h43.75
				C53.33,115.316,54.45,114.196,54.45,112.816z"/>
			<path d="M43.9,127.806H8.21c-1.38,0-2.5,1.12-2.5,2.5s1.12,2.5,2.5,2.5H43.9c1.38,0,2.5-1.12,2.5-2.5S45.28,127.806,43.9,127.806
				z"/>
			<path d="M39.46,145.296H8.21c-1.38,0-2.5,1.12-2.5,2.5s1.12,2.5,2.5,2.5h31.25c1.38,0,2.5-1.12,2.5-2.5
				S40.84,145.296,39.46,145.296z"/>
		</g>
	</g>
</g>
</svg>
