<?xml version="1.0" encoding="utf-8"?>
<!-- Generator: Adobe Illustrator 22.1.0, SVG Export Plug-In . SVG Version: 6.00 Build 0)  -->
<svg version="1.1" id="Layer_1" xmlns="http://www.w3.org/2000/svg" xmlns:xlink="http://www.w3.org/1999/xlink" x="0px" y="0px"
	 viewBox="0 0 512 512" style="enable-background:new 0 0 512 512;" xml:space="preserve">
<style type="text/css">
	.st0{fill:#E58D23;}
	.st1{fill:#CCC033;}
	.st2{fill:#99AF17;}
	.st3{fill:#EACF32;}
	.st4{fill:#FCDA4F;}
	.st5{fill:#BF6C0D;}
	.st6{fill:#A56021;}
	.st7{fill:#FFC34C;}
	.st8{fill:#FFB74B;}
	.st9{fill:#FFA730;}
	.st10{fill:#FFD551;}
	.st11{fill:#F9BB32;}
	.st12{fill:#FCE575;}
	.st13{fill:#DB9C2E;}
	.st14{fill:#FFEACF;}
	.st15{fill:#FFD59A;}
	.st16{fill:#FFDF74;}
	.st17{fill:none;stroke:#FFB74B;stroke-width:12;stroke-linecap:round;stroke-linejoin:round;stroke-miterlimit:10;}
	.st18{fill:none;stroke:#FFF4C1;stroke-width:12;stroke-linecap:round;stroke-linejoin:round;stroke-miterlimit:10;}
</style>
<g>
	<g>
		<path class="st6" d="M247.522,190.787c-35.959,0-65.213,29.254-65.213,65.213s29.254,65.213,65.213,65.213
			s65.213-29.254,65.213-65.213S283.48,190.787,247.522,190.787z M247.522,301.452c-25.062,0-45.452-20.39-45.452-45.452
			s20.39-45.452,45.452-45.452s45.452,20.39,45.452,45.452S272.584,301.452,247.522,301.452z"/>
	</g>
	<g>
		<path class="st11" d="M390.027,225.654h-32.224c1.767,5.937,0,0,0,0c-0.079-0.266-0.166-0.528-0.247-0.793h0.007
			c-0.09-0.295-0.189-0.588-0.282-0.881c-0.14-0.444-0.28-0.889-0.425-1.33c-0.149-0.451-0.305-0.9-0.46-1.349
			c-0.14-0.406-0.279-0.812-0.424-1.216c-0.164-0.459-0.336-0.915-0.507-1.372c-0.149-0.399-0.297-0.798-0.451-1.194
			c-0.171-0.44-0.349-0.879-0.526-1.318c-0.166-0.412-0.331-0.824-0.503-1.233c-0.174-0.415-0.355-0.828-0.534-1.242
			c-0.185-0.427-0.37-0.855-0.56-1.279c-0.178-0.397-0.363-0.791-0.547-1.186c-0.201-0.432-0.401-0.866-0.608-1.295
			c-0.19-0.395-0.386-0.787-0.582-1.18c-0.208-0.418-0.415-0.837-0.628-1.251c-0.217-0.424-0.441-0.844-0.665-1.266
			c-0.14-0.265-0.275-0.533-0.418-0.796l-0.005,0.005c-0.132-0.244-0.258-0.49-0.392-0.733c-1.205-2.185-1.204-2.185,0,0
			l22.607-22.962c3.919-3.981,3.869-10.385-0.112-14.305l-28.833-28.386c-3.981-3.919-10.385-3.87-14.305,0.111l-22.607,22.963
			c2.204,1.17,2.203,1.17,0,0c-0.255-0.136-1.66-0.86-2.109-1.086c-0.355-0.178-1.997-0.979-2.465-1.2
			c-0.364-0.172-2.01-0.922-2.47-1.125c-0.395-0.174-8.521-3.314-9.01-3.477c-0.378-0.126-0.755-0.253-1.134-0.375
			c-0.477-0.154-0.955-0.301-1.434-0.447c-0.277-0.085-1.134-0.349-0.829-0.259v-32.223c0-5.261-4.017-9.58-9.15-10.067
			c-0.675-0.137-1.374-0.208-2.091-0.202l-19.673,0.153H235.77c-0.716,0-1.415,0.077-2.089,0.219
			c-5.13,0.526-9.112,4.877-9.071,10.137l0.251,32.223c-0.278,0.085-0.553,0.179-0.831,0.266c-0.472,0.149-0.944,0.297-1.412,0.452
			c-0.435,0.144-0.869,0.294-1.302,0.444c-0.427,0.147-0.854,0.294-1.279,0.447c-0.447,0.16-0.892,0.327-1.337,0.494
			c-0.415,0.155-0.83,0.311-1.243,0.471c-0.439,0.171-0.876,0.348-1.314,0.525c-0.417,0.169-0.834,0.337-1.248,0.511
			c-0.424,0.178-0.847,0.362-1.269,0.546c-0.423,0.184-0.846,0.369-1.267,0.558c-0.413,0.186-0.824,0.378-1.235,0.569
			c-0.422,0.197-0.843,0.394-1.262,0.596c-0.413,0.199-0.825,0.404-1.236,0.609c-0.405,0.202-0.808,0.404-1.21,0.611
			c-0.433,0.223-0.864,0.451-1.294,0.68c-0.216,0.115-0.435,0.225-0.65,0.341l-22.786-22.786c-3.72-3.72-9.613-3.934-13.587-0.649
			c-0.574,0.382-1.119,0.825-1.622,1.336l-13.796,14.013l-13.91,13.91c-0.507,0.507-0.946,1.055-1.323,1.632
			c-3.254,3.999-2.994,9.891,0.755,13.582l22.963,22.607c0.025-0.048,0.047-0.088,0.071-0.134c-0.044,0.084-0.071,0.134-0.071,0.134
			c-0.145,0.274-0.282,0.55-0.425,0.825c-0.224,0.431-0.448,0.861-0.666,1.295c-0.186,0.37-0.367,0.742-0.548,1.114
			c-0.223,0.457-0.447,0.914-0.663,1.376c-0.175,0.373-0.345,0.748-0.516,1.123c-0.208,0.457-0.417,0.915-0.62,1.375
			c-0.174,0.397-0.342,0.796-0.512,1.195c-0.187,0.44-0.374,0.88-0.555,1.322c-0.176,0.43-0.345,0.863-0.515,1.296
			c-0.163,0.415-0.328,0.83-0.487,1.248c-0.176,0.464-0.344,0.93-0.512,1.395c-0.143,0.395-0.288,0.789-0.427,1.186
			c-0.167,0.48-0.326,0.961-0.487,1.442c-0.131,0.395-0.265,0.788-0.392,1.184c-0.147,0.459-0.285,0.92-0.425,1.38
			c-0.106,0.348-0.219,0.694-0.322,1.044c0.034-0.115,0.062-0.233,0.096-0.347h-32.217c-5.586,0-10.115,4.529-10.115,10.115v40.461
			c0,5.586,4.529,10.115,10.115,10.115h32.224c-0.015-0.052-0.028-0.096-0.043-0.145c0.027,0.091,0.043,0.145,0.043,0.145
			c0.079,0.266,0.166,0.528,0.248,0.793h-0.007c0.09,0.294,0.189,0.586,0.281,0.879c0.14,0.445,0.28,0.891,0.426,1.334
			c0.149,0.45,0.304,0.899,0.459,1.348c0.14,0.406,0.279,0.813,0.425,1.218c0.164,0.458,0.336,0.913,0.506,1.369
			c0.15,0.399,0.298,0.799,0.452,1.197c0.171,0.44,0.349,0.878,0.526,1.316c0.167,0.413,0.332,0.826,0.503,1.235
			c0.173,0.413,0.353,0.825,0.531,1.236c0.186,0.429,0.372,0.859,0.564,1.285c0.178,0.396,0.363,0.789,0.546,1.183
			c0.201,0.433,0.402,0.866,0.609,1.296c0.19,0.395,0.386,0.787,0.582,1.18c0.208,0.418,0.415,0.837,0.628,1.252
			c0.217,0.423,0.44,0.842,0.663,1.263c0.141,0.265,0.276,0.535,0.419,0.798l0.005-0.005c0.132,0.244,0.258,0.49,0.392,0.733
			c1.205,2.185,1.204,2.185,0,0l-22.607,22.962c-3.919,3.981-3.869,10.385,0.112,14.305l28.833,28.386
			c3.981,3.919,10.385,3.87,14.305-0.111c0,0,20.404-24.133,22.607-22.963c0.256,0.136,0.516,0.264,0.773,0.398
			c0.444,0.232,0.887,0.462,1.335,0.687c0.357,0.179,0.715,0.354,1.073,0.529c0.462,0.226,0.924,0.451,1.39,0.671
			c0.368,0.173,0.737,0.341,1.106,0.509c0.454,0.207,0.908,0.414,1.366,0.616c0.396,0.174,0.794,0.343,1.191,0.512
			c0.431,0.183,0.862,0.366,1.296,0.544c0.433,0.178,0.867,0.349,1.301,0.52c0.403,0.159,0.805,0.317,1.21,0.471
			c0.469,0.179,0.941,0.351,1.412,0.523c0.377,0.137,0.754,0.275,1.133,0.408c0.49,0.172,0.981,0.337,1.473,0.501
			c0.375,0.125,0.75,0.252,1.127,0.373c0.478,0.154,0.959,0.302,1.439,0.449c0.276,0.084,0.549,0.175,0.826,0.258
			c0.305,0.091,0.568,0.169,0.795,0.237l0,0c-0.227-0.068-0.491-0.146-0.795-0.237v32.223c0,5.261,4.017,9.58,9.15,10.067
			c0.675,0.137,1.374,0.208,2.091,0.202l19.673-0.153h19.663c0.716,0,1.415-0.077,2.089-0.219c5.13-0.526,9.112-4.877,9.071-10.137
			l-0.251-32.223c0.278-0.085,0.553-0.179,0.831-0.266c0.472-0.149,0.944-0.297,1.413-0.452c0.434-0.143,0.867-0.293,1.3-0.443
			c0.428-0.148,0.856-0.294,1.281-0.447c0.446-0.16,0.89-0.327,1.334-0.493c0.416-0.156,0.833-0.312,1.247-0.473
			c0.437-0.17,0.871-0.346,1.306-0.522c0.421-0.17,0.841-0.34,1.259-0.516c0.419-0.176,0.837-0.357,1.254-0.539
			c0.429-0.187,0.857-0.373,1.283-0.565c0.408-0.184,0.813-0.372,1.219-0.562c0.427-0.199,0.854-0.398,1.278-0.604
			c0.408-0.197,0.815-0.399,1.221-0.601c0.41-0.205,0.819-0.41,1.225-0.619c0.429-0.221,0.856-0.447,1.283-0.673
			c0.218-0.116,0.439-0.227,0.655-0.344l22.786,22.786c3.72,3.72,9.614,3.934,13.588,0.648c0.574-0.381,1.119-0.825,1.622-1.335
			l13.794-14.011l13.912-13.912c0.507-0.507,0.946-1.055,1.323-1.633c3.254-3.999,2.994-9.891-0.755-13.582l-22.963-22.607
			c-0.138,0.261-0.264,0.497-0.389,0.733l-0.003-0.002c0.132-0.244,0.256-0.491,0.386-0.736l0.006,0.005
			c0.145-0.274,0.282-0.55,0.425-0.825c0.224-0.431,0.448-0.861,0.666-1.295c0.186-0.37,0.367-0.742,0.548-1.114
			c0.223-0.457,0.447-0.914,0.663-1.375c0.175-0.373,0.345-0.748,0.516-1.123c0.209-0.458,0.418-0.915,0.62-1.376
			c0.173-0.395,0.341-0.792,0.509-1.189c0.188-0.442,0.377-0.885,0.559-1.331c0.175-0.427,0.343-0.857,0.511-1.286
			c0.164-0.418,0.33-0.835,0.489-1.255c0.175-0.463,0.342-0.927,0.511-1.391c0.144-0.396,0.289-0.791,0.428-1.19
			c0.167-0.479,0.326-0.959,0.486-1.44c0.131-0.395,0.266-0.788,0.393-1.185c0.147-0.459,0.285-0.92,0.425-1.38
			c0.106-0.348,0.219-0.694,0.322-1.044c-0.034,0.115-0.062,0.233-0.096,0.347h32.217c5.586,0,10.115-4.529,10.115-10.115V235.77
			C400.142,230.183,395.613,225.654,390.027,225.654z M318.615,274.18c-0.244,0.848-0.513,1.69-0.792,2.529
			c-0.084,0.25-0.167,0.501-0.254,0.75c-0.225,0.647-0.465,1.291-0.711,1.933c-0.171,0.443-0.343,0.887-0.523,1.325
			c-0.179,0.44-0.368,0.876-0.557,1.312c-0.275,0.629-0.555,1.256-0.849,1.874c-0.113,0.239-0.23,0.478-0.347,0.716
			c-0.389,0.792-0.787,1.579-1.207,2.352c-0.034,0.063-0.069,0.126-0.104,0.19c-6.894,12.62-17.843,22.712-31.078,28.541
			c-0.336,0.147-0.667,0.304-1.005,0.445c-0.336,0.141-0.68,0.267-1.019,0.402c-13.441,5.343-28.316,6.065-42.148,2.123
			c-0.067-0.019-0.135-0.038-0.202-0.057c-0.847-0.245-1.689-0.513-2.528-0.792c-0.251-0.084-0.502-0.168-0.751-0.255
			c-0.647-0.224-1.29-0.465-1.931-0.71c-0.444-0.171-0.888-0.344-1.328-0.524c-0.439-0.179-0.874-0.367-1.31-0.556
			c-0.629-0.275-1.256-0.555-1.875-0.849c-0.24-0.113-0.478-0.231-0.717-0.347c-0.792-0.389-1.579-0.787-2.353-1.207
			c-0.063-0.034-0.125-0.069-0.188-0.103c-12.622-6.895-22.715-17.846-28.544-31.082c-0.146-0.334-0.303-0.664-0.443-1
			c-0.142-0.337-0.268-0.683-0.404-1.023c-5.342-13.44-6.064-28.314-2.122-42.145c0.019-0.067,0.038-0.135,0.058-0.202
			c0.244-0.847,0.513-1.689,0.792-2.528c0.084-0.251,0.168-0.502,0.255-0.751c0.224-0.647,0.465-1.29,0.71-1.931
			c0.171-0.444,0.344-0.888,0.524-1.328c0.179-0.439,0.367-0.874,0.556-1.309c0.275-0.63,0.555-1.257,0.85-1.877
			c0.113-0.239,0.23-0.477,0.346-0.715c0.389-0.793,0.788-1.58,1.208-2.354c0.034-0.063,0.069-0.125,0.103-0.188
			c6.895-12.622,17.845-22.715,31.082-28.544c0.334-0.146,0.665-0.303,1.001-0.443c0.338-0.142,0.683-0.268,1.024-0.404
			c13.439-5.341,28.312-6.063,42.141-2.122c0.068,0.02,0.138,0.039,0.206,0.059c0.846,0.244,1.686,0.511,2.523,0.79
			c0.252,0.085,0.505,0.169,0.756,0.256c0.647,0.224,1.289,0.465,1.93,0.71c0.444,0.171,0.887,0.344,1.326,0.524
			c0.44,0.179,0.877,0.368,1.313,0.557c0.63,0.275,1.257,0.555,1.876,0.85c0.239,0.112,0.475,0.229,0.713,0.345
			c0.794,0.389,1.582,0.789,2.357,1.209c0.062,0.033,0.123,0.067,0.184,0.1c12.622,6.894,22.715,17.845,28.545,31.081
			c0.147,0.335,0.304,0.667,0.445,1.004c0.141,0.336,0.267,0.68,0.403,1.019c5.343,13.441,6.065,28.316,2.123,42.148
			C318.654,274.045,318.635,274.112,318.615,274.18z"/>
	</g>
	<g>
		<path class="st5" d="M256,190.787c-35.959,0-65.213,29.254-65.213,65.213s29.254,65.213,65.213,65.213
			s65.213-29.254,65.213-65.213S291.959,190.787,256,190.787z M256,301.452c-25.062,0-45.452-20.39-45.452-45.452
			s20.39-45.452,45.452-45.452s45.452,20.39,45.452,45.452S281.062,301.452,256,301.452z"/>
	</g>
	<g>
		<path class="st10" d="M331.097,243.227c-3.12,0-5.754-2.414-5.979-5.574c-2.628-36.895-35.862-46.895-36.197-46.991
			c-3.185-0.918-5.021-4.243-4.104-7.427c0.92-3.185,4.245-5.021,7.428-4.103c0.432,0.125,10.68,3.143,21.263,11.703
			c9.83,7.951,21.9,22.38,23.579,45.966c0.235,3.306-2.253,6.176-5.559,6.411C331.384,243.222,331.239,243.227,331.097,243.227z"/>
	</g>
	<g>
		<path class="st0" d="M276.723,111.836c-0.529-0.081-1.066-0.136-1.618-0.131l-19.673,0.154h18.459L276.723,111.836z"/>
	</g>
	<g>
		<path class="st0" d="M181.413,307.256C182.617,309.44,182.618,309.44,181.413,307.256L181.413,307.256z"/>
	</g>
	<g>
		<path class="st13" d="M158.918,344.523c-3.981-3.92-4.031-10.324-0.112-14.305l22.607-22.962c-0.134-0.243-0.26-0.489-0.392-0.733
			l-0.005,0.005c-0.143-0.264-0.279-0.533-0.419-0.799c-0.223-0.42-0.446-0.84-0.663-1.263c-0.213-0.415-0.42-0.834-0.628-1.252
			c-0.195-0.393-0.391-0.786-0.582-1.18c-0.207-0.43-0.407-0.863-0.609-1.296c-0.183-0.394-0.368-0.788-0.545-1.184
			c-0.192-0.427-0.377-0.856-0.564-1.285c-0.179-0.411-0.358-0.822-0.531-1.236c-0.172-0.41-0.337-0.823-0.503-1.235
			c-0.177-0.438-0.355-0.876-0.526-1.316c-0.154-0.397-0.303-0.797-0.452-1.197c-0.171-0.456-0.342-0.911-0.506-1.369
			c-0.145-0.404-0.284-0.812-0.425-1.217c-0.155-0.449-0.31-0.897-0.459-1.348c-0.146-0.443-0.286-0.888-0.426-1.334
			c-0.093-0.293-0.191-0.585-0.281-0.879h0.007c-0.081-0.265-0.168-0.527-0.247-0.793h-18.459c0.079,0.266,0.166,0.528,0.247,0.793
			h-0.007c0.09,0.294,0.189,0.586,0.281,0.879c0.14,0.445,0.28,0.891,0.426,1.334c0.149,0.45,0.304,0.899,0.459,1.348
			c0.14,0.406,0.279,0.813,0.425,1.217c0.164,0.458,0.336,0.913,0.506,1.369c0.149,0.399,0.298,0.799,0.452,1.197
			c0.171,0.44,0.349,0.878,0.526,1.316c0.167,0.412,0.332,0.826,0.503,1.235c0.173,0.414,0.353,0.825,0.531,1.236
			c0.186,0.429,0.372,0.859,0.563,1.285c0.178,0.396,0.363,0.79,0.545,1.184c0.201,0.433,0.402,0.866,0.609,1.296
			c0.19,0.394,0.386,0.787,0.582,1.18c0.208,0.418,0.415,0.837,0.628,1.252c0.217,0.423,0.44,0.842,0.663,1.263
			c0.141,0.265,0.277,0.535,0.419,0.799l0.005-0.005c0.132,0.244,0.258,0.49,0.392,0.733c1.205,2.184,1.205,2.184,0,0
			l-22.607,22.962c-3.92,3.981-3.87,10.385,0.112,14.305l28.832,28.386c3.981,3.919,10.385,3.87,14.305-0.112
			c0,0,0.699-0.826,1.847-2.16L158.918,344.523z"/>
	</g>
	<g>
		<path class="st13" d="M162.165,206.203c0.025-0.048,0.047-0.088,0.071-0.134C162.192,206.153,162.165,206.203,162.165,206.203
			c-0.145,0.274-0.282,0.551-0.425,0.825c-0.224,0.431-0.448,0.861-0.666,1.295c-0.186,0.37-0.367,0.742-0.548,1.114
			c-0.223,0.457-0.447,0.914-0.663,1.375c-0.175,0.373-0.345,0.748-0.516,1.123c-0.208,0.457-0.417,0.915-0.62,1.375
			c-0.174,0.397-0.342,0.796-0.512,1.194c-0.187,0.44-0.374,0.88-0.555,1.322c-0.176,0.43-0.345,0.863-0.515,1.296
			c-0.163,0.415-0.328,0.83-0.487,1.248c-0.176,0.464-0.344,0.93-0.512,1.395c-0.143,0.395-0.288,0.789-0.427,1.186
			c-0.167,0.48-0.326,0.961-0.487,1.442c-0.131,0.395-0.265,0.788-0.392,1.184c-0.147,0.459-0.285,0.92-0.425,1.38
			c-0.071,0.233-0.143,0.464-0.215,0.696h18.448c-0.034,0.115-0.063,0.232-0.096,0.348c0.103-0.35,0.215-0.695,0.322-1.044
			c0.14-0.46,0.279-0.921,0.425-1.38c0.127-0.396,0.261-0.789,0.392-1.184c0.16-0.481,0.319-0.963,0.487-1.442
			c0.139-0.397,0.284-0.791,0.427-1.186c0.169-0.465,0.337-0.932,0.512-1.395c0.158-0.418,0.323-0.833,0.487-1.248
			c0.17-0.433,0.339-0.866,0.515-1.296c0.181-0.443,0.368-0.882,0.555-1.322c0.169-0.398,0.337-0.797,0.512-1.194
			c0.202-0.461,0.411-0.918,0.62-1.375c0.171-0.374,0.341-0.75,0.516-1.123c0.217-0.461,0.44-0.918,0.663-1.375
			c0.181-0.372,0.362-0.744,0.548-1.114c0.218-0.434,0.443-0.864,0.666-1.295c0.143-0.274,0.279-0.551,0.425-0.825l-22.963-22.607
			c-3.748-3.691-4.009-9.583-0.755-13.582c0.377-0.577,0.816-1.126,1.323-1.632l13.91-13.91l12.525-12.722l-1.978-1.978
			c-3.72-3.72-9.613-3.934-13.587-0.649c-0.574,0.381-1.119,0.825-1.622,1.336l-13.796,14.013l-13.91,13.91
			c-0.507,0.507-0.946,1.055-1.323,1.632c-3.254,3.999-2.994,9.891,0.755,13.582L162.165,206.203z"/>
	</g>
	<g>
		<path class="st0" d="M180.625,206.203c0,0,0.026-0.05,0.071-0.134C180.671,206.115,180.65,206.155,180.625,206.203z"/>
	</g>
	<g>
		<path class="st13" d="M130.318,276.23v-40.461c0-5.586,4.529-10.115,10.115-10.115h-18.459c-5.586,0-10.115,4.529-10.115,10.115
			v40.461c0,5.586,4.529,10.115,10.115,10.115h18.459C134.846,286.346,130.318,281.817,130.318,276.23z"/>
	</g>
	<g>
		<path class="st0" d="M172.656,286.346c0,0-0.016-0.054-0.043-0.145C172.628,286.25,172.641,286.294,172.656,286.346z"/>
	</g>
	<g>
		<path class="st10" d="M362.685,345.713c-1.557,0-3.112-0.603-4.288-1.803l-20.785-21.233c-2.317-2.368-2.277-6.167,0.091-8.485
			c2.369-2.316,6.166-2.277,8.485,0.091l20.785,21.233c2.317,2.368,2.277,6.167-0.091,8.485
			C365.714,345.144,364.199,345.713,362.685,345.713z"/>
	</g>
	<g>
		<path class="st13" d="M225.17,154.438c0.003-0.001,0.005-0.002,0.008-0.002c2.373-0.71,4.78-1.337,7.219-1.88
			c0.033-0.008,0.066-0.014,0.099-0.022c2.404-0.533,4.839-0.984,7.302-1.349c0.095-0.014,0.192-0.026,0.288-0.04
			c1.077-0.157,2.161-0.295,3.248-0.419c0.038-0.004,0.076-0.009,0.113-0.013l-0.223-28.497c-0.041-5.261,3.957-9.611,9.105-10.138
			c0.677-0.142,1.378-0.218,2.097-0.218h-18.529c-0.719,0-1.42,0.077-2.097,0.218c-5.149,0.526-9.147,4.877-9.105,10.138
			l0.252,32.223H225.17z"/>
	</g>
	<g>
		<path class="st13" d="M253.458,400.077c-5.169-0.483-9.215-4.771-9.215-9.994v-28.609c-0.127-0.013-0.255-0.021-0.381-0.034
			c-0.187-0.02-0.374-0.043-0.561-0.064c-1.091-0.123-2.178-0.259-3.259-0.415c-0.096-0.014-0.193-0.026-0.289-0.04
			c-2.47-0.363-4.913-0.81-7.325-1.34c-0.033-0.007-0.066-0.014-0.1-0.021c-1.955-0.431-3.884-0.93-5.797-1.467l-0.878-0.29v0.29
			v0.618v31.373c0,5.223,4.045,9.511,9.215,9.994c0.68,0.135,1.384,0.206,2.106,0.201l16.959-0.13
			C253.775,400.124,253.614,400.108,253.458,400.077z"/>
	</g>
	<g>
		<g>
			<path class="st1" d="M483.921,318.053c-2.932-5.322-9.623-7.257-14.943-4.324l-5.746,3.168
				c4.038-12.155,6.245-22.215,6.713-24.438c7.221-26.082,3.379-73.671,3.211-75.694c-0.016-0.186-0.036-0.37-0.061-0.555
				c-4.678-34.813-17.715-61.696-18.824-63.936c-24.874-52.242-66.784-82.013-68.56-83.257
				c-42.512-29.776-82.636-37.471-85.867-38.053c-57.667-11.489-110.718,6.144-112.949,6.901c-0.055,0.019-0.109,0.037-0.164,0.057
				c-79.838,28.483-112.701,86.142-114.061,88.582c-2.957,5.308-1.052,12.007,4.255,14.964c5.307,2.956,12.006,1.051,14.963-4.255
				c0.293-0.525,30.086-52.79,102.135-78.534c2.044-0.676,50.492-16.34,101.625-6.118c0.089,0.018,0.179,0.034,0.269,0.05
				c0.373,0.064,37.752,6.814,77.171,34.424c0.387,0.271,38.953,27.662,61.356,74.774c0.029,0.061,0.063,0.131,0.093,0.19
				c0.124,0.249,12.408,25.188,16.716,56.862c1.058,12.997,2.599,49.706-2.586,67.991c-0.075,0.264-0.141,0.536-0.196,0.805
				c-0.033,0.161-1.877,9.043-5.436,20.181l-1.906-7.786c-1.444-5.9-7.401-9.513-13.299-8.069c-5.901,1.444-9.514,7.398-8.07,13.3
				l9.674,39.528c0.012,0.049,0.029,0.096,0.042,0.145c0.045,0.175,0.098,0.349,0.152,0.522c0.039,0.126,0.077,0.252,0.121,0.376
				c0.054,0.153,0.115,0.304,0.176,0.456c0.056,0.139,0.11,0.278,0.171,0.413c0.056,0.125,0.119,0.246,0.18,0.368
				c0.077,0.155,0.153,0.311,0.237,0.461c0.054,0.096,0.113,0.189,0.17,0.284c0.101,0.169,0.202,0.338,0.311,0.501
				c0.051,0.076,0.108,0.149,0.162,0.225c0.124,0.174,0.249,0.348,0.382,0.514c0.055,0.068,0.114,0.133,0.17,0.2
				c0.14,0.166,0.281,0.331,0.43,0.488c0.015,0.016,0.028,0.033,0.043,0.049c0.037,0.039,0.078,0.071,0.115,0.108
				c0.194,0.196,0.394,0.385,0.602,0.566c0.085,0.074,0.171,0.146,0.258,0.217c0.184,0.15,0.373,0.293,0.566,0.432
				c0.094,0.067,0.187,0.137,0.283,0.201c0.238,0.159,0.482,0.307,0.731,0.447c0.047,0.027,0.093,0.058,0.14,0.083
				c0.295,0.161,0.599,0.304,0.909,0.437c0.088,0.038,0.178,0.069,0.267,0.104c0.234,0.094,0.47,0.18,0.71,0.258
				c0.094,0.03,0.188,0.058,0.283,0.085c0.25,0.073,0.503,0.137,0.758,0.192c0.079,0.017,0.157,0.035,0.236,0.05
				c0.299,0.058,0.602,0.103,0.907,0.136c0.036,0.004,0.071,0.01,0.107,0.014c0.35,0.034,0.701,0.056,1.057,0.056
				c0.445,0,0.894-0.03,1.344-0.085c0.179-0.022,0.357-0.066,0.535-0.097c0.248-0.043,0.496-0.075,0.744-0.136
				c0.015-0.003,0.028-0.009,0.043-0.013c0.1-0.025,0.199-0.062,0.299-0.089c0.318-0.088,0.63-0.187,0.933-0.301
				c0.123-0.046,0.243-0.1,0.365-0.15c0.298-0.125,0.588-0.261,0.87-0.41c0.061-0.032,0.125-0.054,0.186-0.087l34.167-18.833
				C484.918,330.064,486.854,323.374,483.921,318.053z"/>
		</g>
		<g>
			<path class="st1" d="M435.782,369.862c-5.301-2.943-11.992-1.032-14.951,4.262c-0.295,0.528-30.33,53.083-101.844,78.946
				c-1.985,0.664-50.401,16.54-101.603,6.508c-0.077-0.015-0.173-0.032-0.25-0.046c-0.376-0.065-38.042-6.845-77.321-34.132
				c-0.388-0.27-39.058-27.513-61.641-74.539c-0.029-0.06-0.064-0.131-0.094-0.19c-0.125-0.248-12.504-25.14-16.934-56.797
				c-1.104-13.006-2.779-49.731,2.326-68.001c0.074-0.265,0.139-0.537,0.192-0.806c0.034-0.169,2.018-9.916,5.873-21.81l2.151,7.703
				c1.357,4.861,5.776,8.044,10.588,8.044c0.979,0,1.976-0.132,2.965-0.408c5.852-1.635,9.27-7.703,7.636-13.554l-10.475-37.503
				c-0.001-0.003-0.002-0.005-0.003-0.008c-0.092-0.329-0.203-0.653-0.326-0.973c-0.04-0.104-0.085-0.204-0.128-0.306
				c-0.086-0.207-0.177-0.411-0.277-0.613c-0.061-0.125-0.125-0.248-0.191-0.369c-0.092-0.169-0.189-0.336-0.29-0.501
				c-0.078-0.128-0.155-0.256-0.238-0.38c-0.101-0.151-0.21-0.297-0.319-0.444c-0.091-0.123-0.179-0.249-0.276-0.368
				c-0.127-0.157-0.266-0.307-0.403-0.458c-0.156-0.172-0.317-0.339-0.483-0.501c-0.155-0.151-0.31-0.302-0.473-0.442
				c-0.097-0.084-0.199-0.16-0.299-0.241c-0.162-0.131-0.326-0.26-0.494-0.38c-0.103-0.074-0.209-0.143-0.315-0.213
				c-0.173-0.115-0.348-0.227-0.527-0.331c-0.11-0.064-0.22-0.126-0.332-0.187c-0.181-0.098-0.364-0.189-0.549-0.276
				c-0.117-0.055-0.233-0.111-0.352-0.162c-0.187-0.08-0.377-0.151-0.568-0.22c-0.122-0.044-0.242-0.093-0.365-0.133
				c-0.225-0.073-0.453-0.133-0.681-0.191c-0.222-0.057-0.447-0.104-0.673-0.146c-0.162-0.03-0.323-0.063-0.486-0.086
				c-0.17-0.024-0.341-0.039-0.512-0.056c-0.157-0.015-0.313-0.029-0.47-0.037c-0.166-0.009-0.333-0.013-0.5-0.014
				c-0.178-0.001-0.355,0.004-0.533,0.011c-0.146,0.006-0.292,0.011-0.439,0.024c-0.261,0.021-0.522,0.055-0.782,0.095
				c-0.066,0.01-0.131,0.015-0.197,0.027c-0.343,0.06-0.684,0.139-1.023,0.231c-0.016,0.004-0.032,0.007-0.049,0.011
				c-0.053,0.015-0.101,0.036-0.153,0.051c-0.259,0.077-0.516,0.162-0.771,0.258c-0.115,0.043-0.228,0.09-0.341,0.137
				c-0.191,0.08-0.381,0.166-0.569,0.257c-0.137,0.066-0.273,0.133-0.406,0.204c-0.048,0.026-0.098,0.047-0.146,0.074
				l-34.095,18.964c-5.31,2.953-7.219,9.651-4.266,14.96c2.952,5.309,9.651,7.218,14.959,4.267l5.734-3.189
				c-3.991,12.168-6.16,22.235-6.62,24.462c-7.121,26.11-3.098,73.685-2.922,75.707c0.016,0.185,0.037,0.37,0.062,0.555
				c4.813,34.813,17.965,61.655,19.071,63.867c25.073,52.141,67.095,81.753,68.875,82.99c42.625,29.612,82.778,37.153,86.011,37.724
				c13.786,2.691,27.296,3.723,39.915,3.723c40.207-0.002,71.311-10.473,73.007-11.056c0.055-0.019,0.109-0.037,0.164-0.057
				c79.729-28.789,112.371-86.572,113.721-89.018C443.008,379.474,441.083,372.807,435.782,369.862z"/>
		</g>
		<g>
			<g>
				<path class="st2" d="M85.673,126.504c1.36-2.44,34.223-60.099,114.061-88.582c0.055-0.02,0.109-0.038,0.164-0.057
					c1.592-0.541,29.084-9.679,65.663-10.686c-42.891-1.219-76.887,10.083-78.663,10.686c-0.055,0.019-0.109,0.037-0.164,0.057
					c-79.838,28.483-112.701,86.142-114.061,88.582c-2.957,5.308-1.052,12.007,4.255,14.964c3.877,2.16,8.492,1.715,11.853-0.746
					C84.366,137.491,82.941,131.408,85.673,126.504z"/>
			</g>
		</g>
		<g>
			<g>
				<path class="st2" d="M226.27,481.19c-3.233-0.57-43.386-8.111-86.011-37.724c-1.78-1.237-43.802-30.85-68.875-82.99
					c-1.105-2.212-14.258-29.055-19.071-63.867c-0.025-0.185-0.046-0.37-0.062-0.555c-0.176-2.022-4.199-49.597,2.922-75.707
					c0.46-2.227,2.628-12.294,6.62-24.462l-5.734,3.189c-2.721,1.513-5.804,1.741-8.563,0.896
					c-3.166,10.281-4.915,18.404-5.323,20.376c-7.121,26.11-3.098,73.685-2.922,75.707c0.016,0.185,0.037,0.37,0.062,0.555
					c4.813,34.813,17.965,61.655,19.071,63.867c25.073,52.141,67.095,81.753,68.875,82.99
					c42.625,29.612,82.778,37.153,86.011,37.724c13.786,2.691,27.296,3.723,39.915,3.723c2.248,0,4.462-0.038,6.65-0.1
					C249.074,484.514,237.772,483.436,226.27,481.19z"/>
			</g>
			<g>
				<path class="st2" d="M44.298,198.385c-1.278-0.917-2.384-2.112-3.199-3.577c-2.953-5.309-1.043-12.007,4.266-14.96l32.86-18.277
					c-0.007-0.005-0.014-0.012-0.022-0.017c-0.103-0.074-0.209-0.143-0.315-0.213c-0.173-0.115-0.348-0.227-0.527-0.331
					c-0.11-0.064-0.22-0.126-0.332-0.187c-0.181-0.098-0.364-0.189-0.549-0.276c-0.117-0.055-0.233-0.111-0.352-0.162
					c-0.187-0.08-0.377-0.151-0.568-0.22c-0.122-0.044-0.242-0.093-0.365-0.133c-0.225-0.073-0.453-0.133-0.681-0.191
					c-0.222-0.057-0.447-0.104-0.673-0.146c-0.162-0.03-0.323-0.063-0.486-0.086c-0.17-0.024-0.341-0.039-0.512-0.056
					c-0.157-0.015-0.313-0.029-0.47-0.037c-0.166-0.009-0.333-0.013-0.5-0.014c-0.178-0.001-0.355,0.004-0.533,0.011
					c-0.146,0.006-0.292,0.011-0.439,0.024c-0.261,0.021-0.522,0.055-0.782,0.095c-0.066,0.01-0.131,0.015-0.197,0.027
					c-0.343,0.06-0.684,0.139-1.023,0.231c-0.016,0.004-0.032,0.007-0.049,0.011c-0.053,0.015-0.101,0.036-0.153,0.051
					c-0.259,0.077-0.516,0.162-0.771,0.258c-0.115,0.043-0.228,0.09-0.341,0.137c-0.191,0.08-0.381,0.166-0.569,0.257
					c-0.137,0.066-0.273,0.133-0.406,0.204c-0.048,0.026-0.098,0.047-0.146,0.074l-34.095,18.964
					c-5.31,2.953-7.219,9.651-4.266,14.96c2.952,5.309,9.651,7.218,14.959,4.267L44.298,198.385z"/>
			</g>
		</g>
		<g>
			<circle class="st13" cx="153.971" cy="251.808" r="17.904"/>
		</g>
	</g>
</g>
</svg>
